<svg width="16" height="18" viewBox="0 0 16 18" fill="none" xmlns="http://www.w3.org/2000/svg">
<path d="M15.2656 11.2188L8.39062 17.4688C8.27344 17.5859 8.11719 17.625 8 17.625C7.84375 17.625 7.6875 17.5859 7.57031 17.4688L0.695312 11.2188C0.421875 10.9844 0.421875 10.5938 0.65625 10.3594C0.890625 10.0859 1.28125 10.0859 1.51562 10.3203L7.375 15.5938V1.375C7.375 1.0625 7.64844 0.789062 7.96094 0.789062C8.27344 0.789062 8.625 1.0625 8.625 1.375V15.5938L14.4453 10.3203C14.6797 10.0859 15.0703 10.0859 15.3047 10.3594C15.5391 10.5938 15.5391 10.9844 15.2656 11.2188Z" fill="white"/>
</svg>
