<svg width="60" height="49" viewBox="0 0 60 49" fill="none" xmlns="http://www.w3.org/2000/svg">
<path d="M11.1562 4.1875C11.7188 4.46875 12.0938 5.21875 11.9062 5.875C11.7188 6.53125 11.1562 7 10.5 7C10.2188 7 10.0312 7 9.75 6.90625L3.75 4C3 3.625 2.71875 2.6875 3.09375 1.9375C3.46875 1.1875 4.40625 1 5.15625 1.28125L11.1562 4.1875ZM10.5 28C11.1562 28 11.7188 28.5625 11.9062 29.2188C12.0938 29.7812 11.7188 30.5312 11.1562 30.8125L5.15625 33.7188C4.40625 34.0938 3.46875 33.7188 3.09375 33.0625C2.71875 32.3125 3 31.375 3.75 31L9.75 28.0938C10.0312 28 10.2188 28 10.5 28ZM49.5 7C48.75 7 48.1875 6.53125 48 5.875C47.8125 5.21875 48.1875 4.46875 48.75 4.1875L54.75 1.28125C55.5 0.90625 56.4375 1.28125 56.8125 1.9375C57.1875 2.6875 56.9062 3.625 56.1562 4L50.1562 6.90625C49.875 7 49.6875 7 49.5 7ZM9 17.5C9 18.3438 8.25 19 7.5 19H1.5C0.65625 19 0 18.1562 0 17.4062C0 16.6562 0.65625 16 1.5 16H7.5C8.25 16 9 16.75 9 17.5ZM58.5 16C59.25 16 60 16.6562 60 17.4062C60 18.1562 59.25 18.8125 58.5 18.8125H52.5C51.6562 18.8125 51 18.1562 51 17.4062C51 16.6562 51.6562 16 52.5 16H58.5ZM56.1562 31.1875C56.9062 31.5625 57.1875 32.5 56.8125 33.25C56.4375 34 55.5 34.2812 54.75 33.9062L48.75 31C48 30.625 47.7188 29.6875 48.0938 28.9375C48.4688 28.1875 49.4062 28 50.1562 28.2812L56.1562 31.1875ZM29.9062 1.09375C34.2188 0.90625 38.4375 2.78125 41.5312 5.875C44.7188 8.96875 46.5 13.1875 46.5 17.6875C46.5 21.7188 45 25.5625 42.375 28.6562C41.1562 30.0625 39 33.25 38.25 35.875C38.1562 36.625 37.5 37.0938 36.75 37.0938C36.75 37.0938 36.6562 37.0938 36.5625 37.0938C35.7188 37 35.1562 36.1562 35.25 35.4062L35.3438 35.0312C36.2812 31.75 38.7188 28.1875 40.125 26.6875C42.2812 24.1562 43.5 20.9688 43.5 17.6875C43.5 14.0312 42 10.5625 39.4688 8.03125C36.9375 5.40625 33.5625 4.09375 30 4.09375H29.9062C22.4062 4.09375 16.5 10.0938 16.5 17.6875C16.5 20.9688 17.625 24.1562 19.7812 26.5938C21.1875 28.1875 23.625 31.75 24.5625 35.0312L24.6562 35.4062C24.6562 36.1562 24.0938 36.9062 23.25 37C22.5 37.0938 21.75 36.5312 21.6562 35.7812C20.9062 33.25 18.75 30.0625 17.5312 28.5625C14.9062 25.5625 13.5 21.7188 13.5 17.6875C13.5 8.5 20.8125 1.09375 29.9062 1.09375ZM35.9062 40C36.75 40 37.4062 40.75 37.4062 41.5V43.5625C37.4062 44.0312 37.2188 44.7812 36.9375 45.25L35.3438 47.5938C34.875 48.3438 33.75 49 32.8125 49H27.0938C26.1562 49 25.0312 48.3438 24.5625 47.5938L22.9688 45.25C22.5938 44.6875 22.5 44.125 22.5 43.5625V41.5C22.4062 40.6562 23.1562 40 24 40H35.9062ZM34.4062 43.6562C34.4062 43.6562 34.4062 43.5625 34.5 43.5625V43H25.5V43.6562L27.0938 46C27.0938 46 27.1875 46 27.1875 46.0938L32.8125 46C32.8125 46 32.9062 46 32.9062 45.9062L34.4062 43.6562ZM31.5 8.59375C31.5 9.34375 30.75 10.0938 30 10.0938C25.7812 10.0938 22.5 13.375 22.5 17.5C22.5 18.25 21.75 19 21 19C20.1562 19 19.5 18.25 19.5 17.5C19.5 11.7812 24.1875 7.09375 30 7.09375C30.75 7.09375 31.5 7.75 31.5 8.59375Z" fill="white"/>
</svg>
