<svg width="61" height="42" viewBox="0 0 61 42" fill="none" xmlns="http://www.w3.org/2000/svg">
<path d="M53.5 18C54.25 18 55 18.75 55 19.5V32.4375C55 34.5 53.5938 36.2812 51.5312 36.8438L32.7812 41.8125C32.125 42 31.4688 42 30.9062 42C30.3438 42 29.6875 42 29.0312 41.8125L10.2812 36.8438C8.3125 36.2812 7 34.5 7 32.4375V19.5C7 18.75 7.65625 18 8.5 18C9.25 18 10 18.75 10 19.5V32.4375C10 33.0938 10.375 33.75 11.0312 33.8438L29.5 38.7188V18C29.5 17.1562 30.1562 16.5 31 16.5C31.75 16.5 32.5 17.1562 32.5 18V38.8125L50.875 33.8438C51.5312 33.6562 52 33.0938 52 32.3438V19.5C52 18.6562 52.6562 18 53.5 18ZM60.8125 11.4375C61 11.8125 61 12.2812 60.8125 12.75C60.625 13.125 60.25 13.4062 59.7812 13.5L40.2812 18C40.1875 18 40.0938 18 40 18C39.5312 18 39.0625 17.8125 38.7812 17.3438L31 7.03125L23.125 17.4375C22.8438 17.8125 22.375 18 22 18C21.8125 18 21.7188 18 21.625 18L2.125 13.5C1.65625 13.4062 1.28125 13.125 1.09375 12.75C0.90625 12.2812 0.90625 11.9062 1.09375 11.4375L5.59375 0.9375C5.875 0.375 6.4375 0 7.09375 0.09375L31 3L54.8125 0.09375C55.4688 0 56.0312 0.375 56.3125 0.9375L60.8125 11.4375ZM21.3438 14.9062L28.1875 5.71875L7.84375 3.1875L4.5625 10.9688L21.3438 14.9062ZM40.5625 14.9062L57.3438 10.9688L54.0625 3.1875L33.7188 5.71875L40.5625 14.9062Z" fill="white"/>
</svg>
