<svg width="48" height="42" viewBox="0 0 48 42" fill="none" xmlns="http://www.w3.org/2000/svg">
<path d="M45.6562 9C46.875 9 48 9.9375 48 11.25V39C48 40.5938 46.5938 42 45 42H3C1.3125 42 0 40.5938 0 39V3C0 1.3125 1.3125 0 3 0H12C13.5938 0 15 1.3125 15 3V18L28.0312 9.375C28.4062 9.1875 28.7812 9 29.1562 9C30.375 9 31.5 9.9375 31.5 11.25V18L44.5312 9.28125C44.9062 9.09375 45.2812 9 45.6562 9ZM45 39V12.6562L28.5 23.625V12.6562L12 23.625V3H3V39H45ZM15 27C15.75 27 16.5 27.75 16.5 28.5V34.5C16.5 35.3438 15.75 36 15 36H9C8.15625 36 7.5 35.3438 7.5 34.5V28.5C7.5 27.75 8.15625 27 9 27H15ZM13.5 33V30H10.5V33H13.5ZM27 27C27.75 27 28.5 27.75 28.5 28.5V34.5C28.5 35.3438 27.75 36 27 36H21C20.1562 36 19.5 35.3438 19.5 34.5V28.5C19.5 27.75 20.1562 27 21 27H27ZM25.5 33V30H22.5V33H25.5ZM31.5 28.5C31.5 27.75 32.1562 27 33 27H39C39.75 27 40.5 27.75 40.5 28.5V34.5C40.5 35.3438 39.75 36 39 36H33C32.1562 36 31.5 35.3438 31.5 34.5V28.5ZM34.5 30V33H37.5V30H34.5Z" fill="white"/>
</svg>
