<svg width="36" height="48" viewBox="0 0 36 48" fill="none" xmlns="http://www.w3.org/2000/svg">
<path d="M34.2188 11.8125C35.3438 12.9375 36 14.4375 36 16.0312V42C36 45.375 33.2812 48 30 48H6C2.625 48 0 45.375 0 42V6C0 2.71875 2.625 0 6 0H19.9688C21.5625 0 23.0625 0.65625 24.1875 1.78125L34.2188 11.8125ZM21 3.28125V13.5C21 14.3438 21.6562 15 22.5 15H32.7188C32.625 14.625 32.4375 14.25 32.0625 13.875L22.125 3.9375C21.75 3.5625 21.375 3.375 21 3.28125ZM33 42V18H22.5C19.9688 18 18 16.0312 18 13.5V3H6C4.3125 3 3 4.40625 3 6V42C3 43.6875 4.3125 45 6 45H30C31.5938 45 33 43.6875 33 42ZM7.5 28.5C7.5 23.625 11.5312 19.5 16.5 19.5C21.375 19.5 25.5 23.625 25.5 28.5C25.5 30.4688 24.8438 32.25 23.8125 33.75L29.5312 39.4688C30.0938 40.0312 30.0938 41.0625 29.5312 41.625C29.25 41.9062 28.875 42 28.5 42C28.0312 42 27.6562 41.9062 27.375 41.625L21.6562 35.9062C20.1562 36.9375 18.375 37.5 16.5 37.5C11.5312 37.5 7.5 33.4688 7.5 28.5ZM22.5 28.5C22.5 25.2188 19.7812 22.5 16.5 22.5C13.125 22.5 10.5 25.2188 10.5 28.5C10.5 31.875 13.125 34.5 16.5 34.5C19.7812 34.5 22.5 31.875 22.5 28.5Z" fill="white"/>
</svg>
