<svg width="20" height="19" viewBox="0 0 20 19" fill="none" xmlns="http://www.w3.org/2000/svg">
<path d="M10 0.125C15.1562 0.125 19.3359 4.34375 19.3359 9.5C19.3359 14.6953 15.1562 18.875 10 18.875C4.80469 18.875 0.625 14.6953 0.625 9.5C0.625 4.34375 4.80469 0.125 10 0.125ZM18.125 9.5C18.125 8.64062 17.9688 7.82031 17.6953 7H14.8047C14.9219 7.82031 15 8.64062 15 9.5C15 10.3984 14.9219 11.2188 14.8047 12H17.6953C17.9688 11.2188 18.125 10.3984 18.125 9.5ZM10 17.625C11.25 17.625 12.5781 15.9453 13.2422 13.25H6.67969C7.38281 15.9453 8.71094 17.625 10 17.625ZM6.40625 12H13.5547C13.6719 11.2578 13.75 10.3984 13.75 9.5C13.75 8.64062 13.6719 7.78125 13.5547 7H6.40625C6.28906 7.78125 6.25 8.64062 6.25 9.5C6.25 10.3984 6.28906 11.2578 6.40625 12ZM1.875 9.5C1.875 10.3984 1.99219 11.2188 2.26562 12H5.15625C5.03906 11.2188 4.96094 10.3984 4.96094 9.5C4.96094 8.64062 5.03906 7.82031 5.15625 7H2.26562C1.99219 7.82031 1.875 8.64062 1.875 9.5ZM10 1.375C8.71094 1.375 7.38281 3.09375 6.67969 5.75H13.2812C12.5781 3.09375 11.25 1.375 10 1.375ZM17.1875 5.75C16.2891 4.03125 14.7656 2.66406 12.9297 1.96094C13.6328 2.9375 14.2188 4.22656 14.5703 5.75H17.1875ZM7.03125 1.96094C5.19531 2.66406 3.67188 4.03125 2.77344 5.75H5.39062C5.74219 4.22656 6.32812 2.9375 7.03125 1.96094ZM2.77344 13.25C3.67188 15.0078 5.19531 16.375 7.03125 17.0781C6.32812 16.1016 5.74219 14.8125 5.39062 13.25H2.77344ZM12.9297 17.0781C14.7656 16.375 16.2891 15.0078 17.1875 13.25H14.5703C14.2188 14.8125 13.6328 16.1016 12.9297 17.0781Z" fill="#353535"/>
</svg>
