<svg width="36" height="49" viewBox="0 0 36 49" fill="none" xmlns="http://www.w3.org/2000/svg">
<path d="M18 9.75C22.5 9.75 26.1562 13.5 26.1562 18C26.1562 22.5938 22.3125 26.25 17.9062 26.25C13.4062 26.25 9.75 22.5938 9.75 18C9.75 13.5 13.4062 9.75 18 9.75ZM18 23.25C20.8125 23.25 23.1562 20.9062 23.1562 18C23.1562 15.1875 20.7188 12.75 17.9062 12.75C15.0938 12.75 12.75 15.1875 12.75 18C12.75 20.9062 15.0938 23.25 18 23.25ZM36 18C36 19.5938 34.3125 20.9062 33.9375 22.3125C33.5625 23.8125 34.3125 25.7812 33.5625 27.0938C32.8125 28.4062 30.75 28.6875 29.625 29.7188C28.5938 30.8438 28.3125 32.9062 27 33.6562C25.6875 34.4062 23.7188 33.6562 22.2188 34.0312C20.8125 34.4062 19.5 36 18 36C16.4062 36 15.0938 34.4062 13.6875 34.0312C12.1875 33.6562 10.2188 34.4062 8.90625 33.6562C7.59375 32.9062 7.3125 30.8438 6.28125 29.7188C5.15625 28.6875 3.09375 28.3125 2.34375 27.0938C1.59375 25.7812 2.34375 23.8125 1.96875 22.3125C1.59375 20.9062 0 19.5938 0 18C0 16.5 1.59375 15.1875 1.96875 13.7812C2.34375 12.2812 1.59375 10.3125 2.34375 9C3.09375 7.6875 5.15625 7.40625 6.28125 6.375C7.3125 5.25 7.59375 3.1875 8.90625 2.4375C10.2188 1.6875 12.1875 2.4375 13.6875 2.0625C15.0938 1.6875 16.4062 0 18 0C19.5 0 20.8125 1.6875 22.2188 2.0625C23.7188 2.4375 25.6875 1.6875 27 2.4375C28.3125 3.1875 28.5938 5.25 29.625 6.375C30.75 7.40625 32.8125 7.6875 33.5625 9C34.3125 10.3125 33.5625 12.2812 33.9375 13.7812C34.3125 15.1875 36 16.5 36 18ZM31.0312 21.5625C31.5 19.9688 32.5312 18.75 32.9062 18C32.5312 17.25 31.5 16.125 31.0312 14.5312C30.6562 12.9375 30.9375 11.4375 30.9375 10.5938C30.1875 10.125 28.6875 9.5625 27.5625 8.4375C26.4375 7.3125 25.875 5.8125 25.4062 5.0625C24.5625 5.0625 23.0625 5.34375 21.4688 4.96875C19.875 4.5 18.6562 3.46875 17.9062 3.09375C17.1562 3.46875 16.0312 4.5 14.4375 4.96875C12.8438 5.34375 11.3438 5.0625 10.5 5.0625C10.0312 5.8125 9.46875 7.3125 8.34375 8.4375C7.21875 9.5625 5.71875 10.125 4.96875 10.5938C4.96875 11.4375 5.25 12.9375 4.875 14.5312C4.40625 16.125 3.375 17.25 3 18.0938C3.375 18.8438 4.40625 19.9688 4.875 21.5625C5.25 23.1562 4.96875 24.6562 4.96875 25.5C5.71875 25.9688 7.21875 26.5312 8.34375 27.6562C9.46875 28.7812 10.0312 30.2812 10.5 31.0312C11.3438 31.0312 12.8438 30.75 14.4375 31.125C16.0312 31.5938 17.1562 32.625 17.9062 33C18.75 32.625 19.875 31.5938 21.4688 31.125C23.0625 30.75 24.5625 31.0312 25.4062 31.0312C25.875 30.2812 26.4375 28.7812 27.5625 27.6562C28.6875 26.5312 30.1875 25.9688 30.9375 25.5C30.9375 24.5625 30.6562 23.0625 31.0312 21.5625ZM28.4062 37.5L29.9062 44.5312C30.0938 45.6562 29.7188 46.7812 28.7812 47.4375C28.3125 47.8125 27.6562 48 27.0938 48C26.625 48 26.1562 47.9062 25.7812 47.625L18 43.7812L10.125 47.7188C9.09375 48.2812 7.96875 48.0938 7.125 47.4375C6.1875 46.7812 5.8125 45.6562 6 44.5312L7.5 37.5C7.6875 36.75 8.4375 36.1875 9.28125 36.375C10.0312 36.5625 10.5938 37.3125 10.4062 38.1562L9 45.1875L17.25 40.7812C17.7188 40.5938 18.1875 40.5938 18.6562 40.7812L27.0938 45.0938L25.5 38.1562C25.3125 37.3125 25.875 36.5625 26.625 36.375C27.4688 36.1875 28.2188 36.75 28.4062 37.5Z" fill="#353535"/>
</svg>
