<svg width="49" height="49" viewBox="0 0 49 49" fill="none" xmlns="http://www.w3.org/2000/svg">
<path d="M23.7812 31.875C22.8438 32.8125 23.0312 32.625 22.6562 34.0312C22.2812 35.3438 21.25 36.375 19.9375 36.75C19.375 36.9375 19.1875 36.9375 19 37.0312V46.5C19 47.0625 18.7188 47.5312 18.25 47.8125C17.9688 48 17.6875 48 17.5 48C17.2188 48 17.0312 48 16.75 47.9062L13 45.9375L9.15625 47.9062C8.6875 48.0938 8.125 48.0938 7.65625 47.8125C7.1875 47.5312 6.90625 47.0625 6.90625 46.5V37.0312C6.71875 36.9375 6.53125 36.8438 5.96875 36.6562C4.65625 36.375 3.625 35.25 3.25 33.9375C2.875 32.625 3.0625 32.8125 2.125 31.875C1.09375 30.8438 0.71875 29.4375 1.09375 28.0312C1.375 26.8125 1.46875 27.2812 1.09375 26.0625C0.71875 24.6562 1.09375 23.25 2.125 22.2188C2.96875 21.2812 2.96875 21.4688 3.25 20.1562C3.625 18.8438 4.65625 17.7188 5.96875 17.4375C7.28125 17.0625 7.09375 17.1562 8.03125 16.2188C8.96875 15.1875 10.4688 14.8125 11.7812 15.1875C13.0938 15.5625 12.8125 15.5625 14.125 15.1875C15.4375 14.8125 16.9375 15.1875 17.875 16.2188C18.8125 17.1562 18.625 17.0625 19.9375 17.4375C21.25 17.7188 22.2812 18.8438 22.6562 20.1562C22.9375 21.4688 22.9375 21.2812 23.7812 22.2188C24.8125 23.25 25.1875 24.6562 24.8125 26.0625C24.4375 27.2812 24.5312 26.8125 24.7188 28.0312C25.0938 29.4375 24.7188 30.8438 23.7812 31.875ZM16 44.1562V38.9062C15.3438 39.0938 14.6875 39.0938 14.125 38.9062C12.8125 38.5312 13.0938 38.5312 11.7812 38.9062C11.2188 39.0938 10.5625 39.0938 9.90625 38.9062V44.1562L12.25 42.9375C12.7188 42.75 13.1875 42.75 13.6562 42.9375L16 44.1562ZM21.8125 28.4062C21.4375 27.1875 21.4375 26.9062 21.8125 25.6875C22 24.9375 22.0938 24.75 21.4375 24.0938C20.4062 22.9688 20.2188 22.7812 19.8438 21.2812C19.6562 20.5312 19.5625 20.4375 18.8125 20.1562C17.3125 19.7812 17.0312 19.6875 16 18.5625C15.4375 18 15.3438 17.9062 14.5938 18.1875C13.0938 18.5625 12.8125 18.5625 11.3125 18.1875C10.5625 17.9062 10.4688 18 9.90625 18.5625C8.875 19.6875 8.59375 19.7812 7.09375 20.1562C6.34375 20.4375 6.25 20.5312 6.0625 21.2812C5.6875 22.7812 5.5 22.9688 4.46875 24.0938C3.8125 24.75 3.90625 24.9375 4.09375 25.6875C4.46875 26.9062 4.46875 27.1875 4.09375 28.4062C3.90625 29.1562 3.8125 29.3438 4.46875 30C5.59375 31.125 5.6875 31.3125 6.15625 33.0938C6.34375 33.6562 6.71875 33.75 7.09375 33.8438C8.59375 34.3125 8.875 34.4062 9.90625 35.5312C10.4688 36.0938 10.5625 36.0938 11.3125 35.9062C12.8125 35.5312 13.0938 35.5312 14.5938 35.9062C15.3438 36.0938 15.4375 36.0938 16 35.5312C17.0312 34.4062 17.3125 34.3125 18.8125 33.8438C19.1875 33.75 19.6562 33.6562 19.75 33.0938C20.2188 31.3125 20.3125 31.125 21.4375 30C22.0938 29.3438 22 29.1562 21.8125 28.4062ZM47.2188 11.8125C48.3438 12.9375 49 14.4375 48.9062 16.0312V42C48.9062 45.375 46.1875 48 42.9062 48H23.5C22.6562 48 22 47.3438 22 46.5C22 45.75 22.6562 45 23.5 45H43C44.5938 45 46 43.6875 46 42V18H35.5C32.9688 18 31 16.0312 31 13.5V3H19C17.3125 3 16 4.40625 16 6V10.5C16 11.3438 15.25 12 14.5 12C13.6562 12 13 11.3438 13 10.5L12.9062 6C12.9062 2.71875 15.5312 0 18.9062 0H32.9688C34.5625 0 36.0625 0.65625 37.1875 1.78125L47.2188 11.8125ZM35.5 15H45.7188C45.625 14.625 45.4375 14.25 45.0625 13.875L35.125 3.9375C34.75 3.5625 34.375 3.375 34 3.28125V13.5C34 14.3438 34.6562 15 35.5 15Z" fill="#353535"/>
</svg>
