<svg width="38" height="48" viewBox="0 0 38 48" fill="none" xmlns="http://www.w3.org/2000/svg">
<path d="M28 33.6562C26.6875 34.4062 24.7188 33.6562 23.2188 34.0312C21.8125 34.4062 20.5 36 19 36C17.4062 36 16.0938 34.4062 14.6875 34.0312C13.1875 33.6562 11.2188 34.4062 9.90625 33.6562C8.59375 32.9062 8.3125 30.8438 7.28125 29.7188C6.15625 28.6875 4.09375 28.3125 3.34375 27.0938C2.59375 25.7812 3.34375 23.8125 2.96875 22.3125C2.59375 20.9062 1 19.5938 1 18C1 16.5 2.59375 15.1875 2.96875 13.7812C3.34375 12.2812 2.59375 10.3125 3.34375 9C4.09375 7.6875 6.15625 7.40625 7.28125 6.375C8.3125 5.25 8.6875 3.1875 9.90625 2.4375C11.2188 1.6875 13.1875 2.4375 14.6875 2.0625C16.0938 1.6875 17.4062 0 19 0C20.5 0 21.8125 1.6875 23.125 2.0625C24.625 2.4375 26.5938 1.6875 27.9062 2.4375C29.2188 3.1875 29.5 5.25 30.625 6.375C31.6562 7.40625 33.7188 7.6875 34.4688 9C35.2188 10.3125 34.4688 12.2812 34.8438 13.7812C35.2188 15.1875 36.9062 16.5 36.9062 18C36.9062 19.5938 35.3125 20.9062 34.9375 22.3125C34.5625 23.8125 35.3125 25.7812 34.5625 27.0938C33.8125 28.4062 31.75 28.6875 30.625 29.7188C29.5938 30.8438 29.2188 32.9062 28 33.6562ZM18.9062 33C19.75 32.625 20.875 31.5938 22.4688 31.125C24.0625 30.75 25.5625 31.0312 26.4062 31.0312C26.875 30.2812 27.4375 28.7812 28.5625 27.6562C29.6875 26.5312 31.1875 25.9688 31.9375 25.5C31.9375 24.5625 31.6562 23.0625 32.0312 21.5625C32.5 19.9688 33.5312 18.8438 33.9062 18.0938C33.5312 17.25 32.5 16.125 32.0312 14.5312C31.6562 12.9375 31.9375 11.4375 31.9375 10.5938C31.1875 10.125 29.6875 9.5625 28.5625 8.4375C27.4375 7.3125 26.875 5.8125 26.4062 5.0625C25.5625 5.0625 24.0625 5.34375 22.4688 4.96875C20.875 4.5 19.75 3.46875 18.9062 3.09375C18.1562 3.46875 17.0312 4.5 15.4375 4.96875C13.8438 5.34375 12.3438 5.0625 11.5 5.0625C11.0312 5.8125 10.4688 7.3125 9.34375 8.4375C8.21875 9.5625 6.71875 10.125 5.96875 10.5938C5.96875 11.4375 6.25 12.9375 5.875 14.5312C5.40625 16.125 4.375 17.25 4 18.0938C4.375 18.8438 5.40625 19.9688 5.875 21.5625C6.25 23.1562 5.96875 24.6562 5.96875 25.5C6.625 25.9688 8.125 26.5312 9.25 27.6562C10.375 28.7812 10.9375 30.2812 11.4062 30.9375C12.25 31.0312 13.75 30.75 15.3438 31.125C16.9375 31.5938 18.1562 32.625 18.9062 33ZM27.1562 18C27.1562 22.5938 23.3125 26.25 18.9062 26.25C14.4062 26.25 10.75 22.5938 10.75 18C10.75 13.5 14.5 9.75 19 9.75C23.4062 9.75 27.1562 13.5 27.1562 18ZM19 23.25C21.8125 23.25 24.1562 20.9062 24.1562 18C24.1562 15.1875 21.7188 12.75 18.9062 12.75C16.0938 12.75 13.75 15.1875 13.75 18C13.75 20.9062 16.0938 23.25 19 23.25ZM34.4688 34.7812L36.7188 40.5C37.1875 41.5312 37 42.8438 36.25 43.6875C35.5 44.625 34.2812 45 33.1562 44.8125L31.0938 44.3438L30.1562 46.3125C29.5938 47.3438 28.5625 48 27.3438 48C25.9375 48 24.9062 47.25 24.4375 46.0312L22.0938 40.3125C21.7188 39.5625 22.0938 38.7188 22.8438 38.3438C23.6875 38.0625 24.5312 38.4375 24.8125 39.1875L27.1562 44.9062L29.5 40.9688L33.9062 41.625L31.6562 35.8125C31.375 35.0625 31.75 34.2188 32.5 33.9375C33.25 33.5625 34.1875 33.9375 34.4688 34.7812ZM15.0625 38.3438C15.8125 38.7188 16.1875 39.5625 15.8125 40.3125L13.4688 46.0312C13 47.25 11.9688 48 10.6562 48C9.34375 48 8.3125 47.3438 7.75 46.3125L6.8125 44.3438L4.75 44.8125C3.625 45 2.40625 44.625 1.65625 43.6875C0.90625 42.8438 0.71875 41.5312 1.1875 40.5L3.4375 34.7812C3.71875 33.9375 4.65625 33.5625 5.40625 33.9375C6.15625 34.2188 6.53125 35.0625 6.25 35.8125L4 41.625L8.40625 40.9688L10.75 44.9062L13.0938 39.1875C13.375 38.4375 14.2188 38.0625 15.0625 38.3438Z" fill="#353535"/>
</svg>
