<svg width="60" height="39" viewBox="0 0 60 39" fill="none" xmlns="http://www.w3.org/2000/svg">
<path d="M60 31.5C60 32.3438 59.25 33 58.5 33H54C52.0312 33 50.3438 31.7812 49.6875 30H46.7812C46.5938 30.4688 46.4062 30.8438 46.125 31.2188L45.2812 32.3438C43.9688 33.9375 41.7188 34.3125 39.9375 33.4688L37.9688 35.8125C36.2812 37.7812 33.2812 38.1562 31.2188 36.4688L30.6562 36C29.625 36.8438 28.3125 37.4062 26.9062 37.5C26.625 37.5 26.3438 37.5 26.1562 37.5C24.4688 37.5 22.875 36.9375 21.5625 35.9062L13.9688 30H10.2188C9.5625 31.7812 7.875 33 6 33H3C2.15625 33 1.5 32.3438 1.5 31.5C1.5 30.75 2.15625 30 3 30H6C6.75 30 7.5 29.3438 7.5 28.5V9H1.5C0.65625 9 0 8.34375 0 7.5C0 6.75 0.65625 6 1.5 6H12.1875C15.375 2.90625 19.4062 0.84375 23.7188 0.28125C24.5625 0.09375 25.3125 0.75 25.4062 1.5C25.5938 2.34375 25.0312 3.09375 24.1875 3.1875C20.3438 3.75 16.6875 5.71875 13.9688 8.53125L13.5 9H10.5V27H15L23.4375 33.5625C24.375 34.3125 25.4062 34.5938 26.5312 34.5C27.6562 34.4062 28.6875 33.8438 29.3438 33L30.375 31.9688L31.5938 32.8125L33.1875 34.125C33.8438 34.7812 35.0625 34.6875 35.625 33.8438L39.375 29.25L41.0625 30.6562C41.625 31.125 42.4688 31.0312 42.9375 30.375L43.7812 29.3438C44.25 28.7812 44.1562 27.9375 43.5938 27.4688L33.4688 19.2188C32.8125 18.6562 32.7188 17.7188 33.1875 17.0625C33.75 16.5 34.6875 16.3125 35.3438 16.875L45.4688 25.125C46.125 25.6875 46.5 26.3438 46.7812 27H49.5V9H46.4062L45.9375 8.625C42.5625 5.0625 37.875 3 33.2812 3H32.5312C32.1562 3 31.875 3.1875 31.5938 3.375L22.875 11.625C21.9375 12.4688 22.0312 13.875 22.7812 14.625C22.9688 14.8125 23.5312 15.2812 24.2812 15.2812C24.75 15.2812 25.2188 15.0938 25.5938 14.7188L25.6875 14.8125C26.4375 13.9688 28.3125 12.1875 32.8125 8.0625C33.375 7.5 34.3125 7.59375 34.875 8.15625C35.4375 8.8125 35.4375 9.75 34.7812 10.3125L27.6562 16.9688C26.7188 17.8125 25.5938 18.2812 24.375 18.2812C24.2812 18.2812 24.1875 18.2812 24.0938 18.2812C22.5 18.1875 21.1875 17.3438 20.5312 16.5938C18.6562 14.5312 18.75 11.5312 20.7188 9.5625V9.46875L29.5312 1.21875C30.375 0.46875 31.4062 0 32.5312 0H33.2812C38.5312 0 43.6875 2.25 47.625 6H58.5C59.25 6 60 6.75 60 7.5C60 8.34375 59.25 9 58.5 9H52.5V28.5C52.5 29.3438 53.1562 30.0938 53.9062 30.0938L58.5 30C59.25 30 60 30.75 60 31.5Z" fill="#353535"/>
</svg>
