<svg width="54" height="48" viewBox="0 0 54 48" fill="none" xmlns="http://www.w3.org/2000/svg">
<path d="M49.5 24C51.9375 24 54 26.0625 54 28.5938V43.5938C54 46.0312 51.9375 48 49.5 48H22.5C19.9688 48 18 46.0312 18 43.5V28.5C18 26.0625 19.9688 24 22.5 24H49.5ZM51 43.5V28.5C51 27.75 50.25 27 49.5 27H22.5C21.6562 27 21 27.75 21 28.5V43.5C21 44.3438 21.6562 45 22.5 45H49.5C50.25 45 51 44.3438 51 43.5ZM13.5 42C14.25 42 15 42.75 15 43.5C15 44.3438 14.25 45 13.5 45H4.5C1.96875 45 0 43.0312 0 40.5V19.5C0 17.0625 1.96875 15 4.5 15H12V9C12 4.125 16.0312 0 21 0C25.875 0 30 4.125 30 9V15H37.5C39.9375 15 42 17.0625 42 19.5C42 20.3438 41.25 21 40.5 21C39.6562 21 39 20.3438 39 19.5C39 18.75 38.25 18 37.5 18H4.5C3.65625 18 3 18.75 3 19.5V40.5C3 41.3438 3.65625 42 4.5 42H13.5ZM15 9V15H27V9C27 5.71875 24.2812 3 21 3C17.625 3 15 5.71875 15 9ZM43.5 30C44.25 30 45 30.75 45 31.5938V33C45 37.9688 40.875 42 36 42C31.0312 42 27 37.9688 27 33V31.5C27 30.75 27.6562 30 28.5 30C29.25 30 30 30.75 30 31.5V33C30 36.375 32.625 39 36 39C39.2812 39 42 36.375 42 32.9062V31.5C42 30.75 42.6562 30 43.5 30Z" fill="#353535"/>
</svg>
