<svg width="54" height="48" viewBox="0 0 54 48" fill="none" xmlns="http://www.w3.org/2000/svg">
<path d="M23.25 18C15.375 18 9 10.5938 9 1.5C9 0.75 9.65625 0 10.5 0H14.1562C19.7812 0 24.6562 3.84375 27 9.28125C29.3438 3.84375 34.125 0 39.75 0H43.5C44.25 0 45 0.75 45 1.5C45 10.5938 38.5312 18 30.6562 18H28.5V22.5C28.5 23.3438 27.75 24 27 24C26.1562 24 25.5 23.3438 25.5 22.5V18H23.25ZM39.75 3C33.9375 3 29.1562 8.34375 28.5 15H30.6562C36.4688 15 41.25 9.75 41.9062 3H39.75ZM14.1562 3H12C12.6562 9.75 17.4375 15 23.25 15H25.4062C24.75 8.34375 19.9688 3 14.1562 3ZM52.3125 31.3125C53.3438 32.3438 54 33.75 53.8125 35.1562C53.8125 36.6562 53.1562 38.0625 52.0312 38.9062L42.5625 46.5C41.25 47.5312 39.75 48 38.1562 48H1.40625C0.65625 48 0 47.25 0 46.5C0 45.6562 0.65625 45 1.5 45H38.1562C39.0938 45 39.9375 44.625 40.6875 44.0625L50.1562 36.5625C51.0938 35.8125 51.1875 34.3125 50.1562 33.4688C49.875 33.1875 49.4062 33 48.9375 33C48.4688 33 47.9062 33.1875 47.5312 33.4688L41.7188 38.0625C41.0625 38.625 40.125 39 39.2812 39H22.4062C21.5625 39 20.9062 38.25 20.9062 37.5C20.9062 36.6562 21.5625 36 22.4062 36H30.6562C31.875 36 32.9062 34.9688 32.9062 33.75C32.9062 32.4375 31.875 31.5 30.6562 31.5H16.875C15.5625 31.5 14.3438 31.875 13.2188 32.625L8.90625 36H1.40625C0.65625 36 0 35.3438 0 34.5C0 33.75 0.65625 33 1.5 33H7.96875L11.5312 30.375C13.2188 29.1562 15 28.5 16.9688 28.5H30.4688C33.0938 28.5 35.5312 30.375 35.9062 33C36.0938 34.125 35.9062 35.1562 35.4375 36H39.375C39.5625 36 39.8438 36 40.0312 35.8125L45.75 31.2188C46.6875 30.4688 47.8125 30.0938 49.0312 30.0938C50.25 30.0938 51.375 30.4688 52.3125 31.3125Z" fill="#353535"/>
</svg>
