<svg width="54" height="50" viewBox="0 0 54 50" fill="none" xmlns="http://www.w3.org/2000/svg">
<path d="M25.7812 25.5312L15.5625 14.8438C12.5625 11.75 12.75 6.59375 16.0312 3.6875C19.4062 0.78125 23.7188 2.1875 25.875 4.4375L26.9062 5.46875L27.9375 4.4375C30.0938 2.09375 34.4062 0.78125 37.7812 3.6875C41.0625 6.59375 41.25 11.75 38.25 14.8438L28.125 25.5312C27.4688 26.1875 26.4375 26.1875 25.7812 25.5312ZM18 5.9375C15.75 7.90625 16.125 11.0938 17.625 12.6875L26.9062 22.4375L36.1875 12.6875C37.7812 11.0938 38.1562 7.90625 35.9062 5.9375C33.9375 4.25 31.4062 5.1875 30.0938 6.5L26.9062 9.78125L23.8125 6.5C22.5 5.1875 19.9688 4.25 18 5.9375ZM52.3125 33.3125C53.3438 34.3438 54 35.75 53.8125 37.1562C53.8125 38.6562 53.1562 40.0625 52.0312 40.9062L42.5625 48.5C41.25 49.5312 39.75 50 38.1562 50H1.40625C0.65625 50 0 49.3438 0 48.5938C0 47.75 0.65625 47.0938 1.5 47.0938H38.1562C39.0938 47.0938 39.9375 46.7188 40.6875 46.1562L50.1562 38.6562C51.0938 37.8125 51.1875 36.4062 50.1562 35.5625C49.875 35.1875 49.4062 35.0938 48.9375 35.0938C48.4688 35.0938 47.9062 35.2812 47.5312 35.5625L41.7188 40.1562C41.0625 40.7188 40.125 41 39.2812 41H22.4062C21.5625 41 20.9062 40.3438 20.9062 39.5C20.9062 38.75 21.5625 38 22.4062 38H30.6562C31.875 38 32.9062 37.0625 32.9062 35.75C32.9062 34.5312 31.875 33.5 30.6562 33.5H16.875C15.5625 33.5 14.3438 33.9688 13.2188 34.7188L8.90625 38.0938L1.40625 38C0.65625 38 0 37.3438 0 36.5C0 35.75 0.65625 35 1.5 35H7.96875L11.5312 32.375C13.2188 31.1562 15 30.5 16.9688 30.5H30.4688C33.0938 30.5 35.5312 32.375 35.9062 35C36.0938 36.125 35.9062 37.1562 35.4375 38H39.375C39.5625 38 39.8438 38 40.0312 37.8125L45.75 33.2188C46.6875 32.4688 47.8125 32.0938 49.0312 32.0938C50.25 32.0938 51.375 32.4688 52.3125 33.3125Z" fill="#353535"/>
</svg>
