<svg width="58" height="48" viewBox="0 0 58 48" fill="none" xmlns="http://www.w3.org/2000/svg">
<path d="M36.5 11.25C37.3438 11.3438 38 11.9062 38.1875 12.75C38.4688 13.5 38.2812 14.3438 37.7188 14.9062L34.8125 17.625L35.5625 21.5625C35.6562 22.4062 35.375 23.1562 34.7188 23.625C34.3438 23.9062 33.875 24 33.4062 24C33.125 24 32.75 24 32.4688 23.8125L28.9062 21.9375L25.4375 23.8125C24.6875 24.1875 23.8438 24.0938 23.1875 23.625C22.5312 23.1562 22.25 22.4062 22.3438 21.5625L23.0938 17.625L20.1875 14.9062C19.625 14.3438 19.4375 13.5 19.7188 12.75C19.9062 11.9062 20.5625 11.4375 21.4062 11.25L25.3438 10.6875L27.0312 7.125C27.7812 5.71875 30.125 5.71875 30.875 7.125L32.5625 10.6875L36.5 11.25ZM31.625 16.5938L34.25 13.9688L30.5938 13.5L29 10.125L27.3125 13.5L23.6562 13.9688L26.2812 16.5938L25.625 20.25L28.9062 18.5625L32.2812 20.25L31.625 16.5938ZM55.625 7.21875C55.7188 7.59375 57.5938 16.9688 51.6875 25.5938C47.75 31.4062 41.375 35.3438 32.6562 37.5C31.3438 37.875 30.4062 39 30.4062 40.4062V45H39.4062C40.25 45 40.8125 45.75 40.8125 46.5C40.8125 47.3438 40.1562 48 39.4062 48H18.5C17.6562 48 16.9062 47.3438 16.9062 46.5C16.9062 45.75 17.6562 45 18.5 45H27.4062V40.4062C27.4062 39 26.4688 37.7812 25.1562 37.5C16.4375 35.3438 10.0625 31.4062 6.21875 25.5938C0.3125 16.9688 2.1875 7.59375 2.28125 7.21875C2.46875 6.5625 3.03125 6 3.78125 6H14C14 5.4375 14 4.875 14 4.40625C14 1.96875 16.0625 0 18.5 0H39.4062C41.8438 0 43.9062 1.96875 43.9062 4.40625C43.9062 4.875 43.9062 5.4375 43.9062 6H54.125C54.875 6 55.4375 6.5625 55.625 7.21875ZM8.65625 24C11.4688 28.125 15.875 31.2188 21.5938 33.2812C15.875 26.7188 14.2812 16.3125 14 9H5.09375C4.8125 11.625 4.71875 18.0938 8.65625 24ZM29 35.1562C40.3438 30.0938 41.0938 12.0938 40.9062 4.5C40.9062 3.65625 40.25 3 39.4062 3H18.5C17.6562 3 17 3.65625 17 4.5C16.8125 12.0938 17.5625 30.0938 29 35.1562ZM49.25 24C53.1875 18.0938 53.0938 11.625 52.8125 9H43.9062C43.625 16.3125 42.0312 26.7188 36.3125 33.2812C42.0312 31.2188 46.4375 28.125 49.25 24Z" fill="#353535"/>
</svg>
