<svg width="54" height="48" viewBox="0 0 54 48" fill="none" xmlns="http://www.w3.org/2000/svg">
<path d="M30 13.5C30 14.3438 29.25 15 28.5 15H7.5C6.65625 15 6 14.3438 6 13.5C6 12.75 6.65625 12 7.5 12H28.5C29.25 12 30 12.75 30 13.5ZM7.5 30H19.5C20.25 30 21 30.75 21 31.5C21 32.3438 20.25 33 19.5 33H7.5C6.65625 33 6 32.3438 6 31.5C6 30.75 6.65625 30 7.5 30ZM26.25 45C27 45 27.75 45.75 27.75 46.5C27.75 47.3438 27 48 26.25 48H6C2.625 48 0 45.375 0 42V6C0 2.71875 2.625 0 6 0H30C33.2812 0 36 2.71875 36 6V17.25C36 18.0938 35.25 18.75 34.5 18.75C33.6562 18.75 33 18.0938 33 17.25V6C33 4.40625 31.5938 3 30 3H6C4.3125 3 3 4.40625 3 6V42C3 43.6875 4.3125 45 6 45H26.25ZM27 22.5C27 23.3438 26.25 24 25.5 24H7.5C6.65625 24 6 23.3438 6 22.5C6 21.75 6.65625 21 7.5 21H25.5C26.25 21 27 21.75 27 22.5ZM40.5 21C47.9062 21 54 27.0938 54 34.5C54 42 47.9062 48 40.5 48C33 48 27 42 27 34.5C27 27.0938 33 21 40.5 21ZM40.5 45C46.2188 45 51 40.3125 51 34.5C51 28.7812 46.2188 24 40.5 24C34.6875 24 30 28.7812 30 34.5C30 40.3125 34.6875 45 40.5 45ZM44.625 30C45.1875 29.4375 46.2188 29.4375 46.7812 30C47.3438 30.5625 47.3438 31.5 46.7812 32.1562L39.75 39.0938C39.4688 39.375 39.0938 39.5625 38.7188 39.5625C38.3438 39.5625 37.9688 39.375 37.6875 39.0938L34.125 35.625C33.5625 35.0625 33.5625 34.0312 34.125 33.4688C34.6875 32.9062 35.7188 32.9062 36.2812 33.4688L38.7188 35.9062L44.625 30Z" fill="#353535"/>
</svg>
