<svg width="56" height="48" viewBox="0 0 56 48" fill="none" xmlns="http://www.w3.org/2000/svg">
<path d="M47.5 24C48.25 24 49 24.75 48.8125 25.5V43.5C48.8125 46.0312 46.8438 48 44.4062 48H11.4062C8.96875 48 7 46.0312 7 43.5V25.5C7 24.75 7.65625 24 8.40625 24C9.25 24 9.90625 24.75 9.90625 25.5V33H46V25.5C46 24.75 46.6562 24 47.5 24ZM46 43.5V36H10V43.5C10 44.3438 10.6562 45 11.5 45H44.5C45.25 45 46 44.3438 46 43.5ZM52.2812 9.75C55.0938 14.1562 52.6562 20.25 47.4062 21C47.0312 21 46.6562 21 46.2812 21C43.8438 21 41.6875 19.9688 40.1875 18.375C38.6875 19.9688 36.5312 21 34.0938 21C31.6562 21 29.4062 19.9688 27.9062 18.375C26.4062 19.9688 24.25 21 21.8125 21C19.375 21 17.2188 19.9688 15.7188 18.375C14.2188 19.9688 12.0625 21 9.625 21C9.25 21 8.875 21 8.5 21C3.25 20.25 0.8125 14.1562 3.625 9.75L8.96875 1.3125C9.4375 0.46875 10.2812 0 11.2188 0H44.6875C45.625 0 46.4688 0.46875 46.9375 1.3125L52.2812 9.75ZM50.0312 15.75C50.6875 14.3438 50.5938 12.6562 49.75 11.3438L44.5 3H11.4062L6.15625 11.3438C5.3125 12.6562 5.21875 14.3438 5.875 15.75C6.25 16.5 7.09375 17.7188 8.875 18C9.15625 18 9.34375 18 9.625 18C11.125 18 12.5312 17.4375 13.4688 16.3125L15.7188 13.875L17.9688 16.3125C18.9062 17.4375 20.3125 18 21.8125 18C23.3125 18 24.7188 17.4375 25.75 16.3125L27.9062 13.875L30.1562 16.3125C31.1875 17.4375 32.5938 18 34.0938 18C35.5938 18 36.9062 17.4375 37.9375 16.3125L40.1875 13.875L42.3438 16.3125C43.375 17.4375 44.7812 18 46.2812 18C46.5625 18 46.75 18 47.0312 18C48.8125 17.7188 49.6562 16.5 50.0312 15.75Z" fill="#353535"/>
</svg>
