<svg width="146" height="94" viewBox="0 0 146 94" fill="none" xmlns="http://www.w3.org/2000/svg">
<rect width="146" height="94" rx="47" fill="#DC0000"/>
<path d="M73 56.875C74.6875 56.875 76.4805 56.3477 77.957 55.1875L100 38.1016V61.9375C100 64.7852 97.6797 67 94.9375 67H51.0625C48.2148 67 46 64.7852 46 61.9375V38.1016L67.9375 55.1875C69.4141 56.3477 71.207 56.875 73 56.875ZM47.6875 35.1484C46.6328 34.3047 46 32.9336 46 31.5625C46 28.8203 48.2148 26.5 51.0625 26.5H94.9375C97.6797 26.5 100 28.8203 100 31.5625C100 32.9336 99.2617 34.3047 98.207 35.1484L75.8477 52.5508C74.1602 53.8164 71.7344 53.8164 70.0469 52.5508L47.6875 35.1484Z" fill="white"/>
</svg>
