<svg width="60" height="49" viewBox="0 0 60 49" fill="none" xmlns="http://www.w3.org/2000/svg">
<path d="M42 15C40.3125 15 39 13.6875 39 12V6C39 4.40625 40.3125 3 42 3H48C49.5938 3 51 4.40625 51 6V12C51 13.6875 49.5938 15 48 15H42ZM42 6V12H48V6H42ZM21 30C19.3125 30 18 28.6875 18 27V6C18 4.40625 19.3125 3 21 3H33C34.5938 3 36 4.40625 36 6V27C36 28.6875 34.5938 30 33 30H21ZM21 6V27H33V6H21ZM42 30C40.3125 30 39 28.6875 39 27V21C39 19.4062 40.3125 18 42 18H54C55.5938 18 57 19.4062 57 21V27C57 28.6875 55.5938 30 54 30H42ZM42 21V27H54V21H42ZM58.5 36C59.25 36 60 36.75 60 37.5C60 38.3438 59.25 39 58.5 39H51.6562C52.4062 40.4062 52.6875 42.0938 52.125 43.875C51.4688 45.9375 49.6875 47.625 47.4375 48C43.6875 48.5625 40.5 45.6562 40.5 42C40.5 40.9688 40.7812 39.9375 41.25 39H24.6562C25.125 39.9375 25.5 40.9688 25.5 42C25.5 45.6562 22.2188 48.5625 18.4688 48C16.2188 47.625 14.4375 45.9375 13.7812 43.875C13.2188 42.0938 13.5 40.4062 14.25 39H12C10.3125 39 9 37.6875 9 36V4.5C9 3.75 8.25 3 7.5 3H1.5C0.65625 3 0 2.34375 0 1.5C0 0.75 0.65625 0 1.5 0H7.5C9.9375 0 12 2.0625 12 4.5V36H58.5ZM19.5 45C21.0938 45 22.5 43.6875 22.5 42C22.5 40.4062 21.0938 39 19.5 39C17.8125 39 16.5 40.4062 16.5 42C16.5 43.6875 17.8125 45 19.5 45ZM46.5 45C48.0938 45 49.5 43.6875 49.5 42C49.5 40.4062 48.0938 39 46.5 39C44.8125 39 43.5 40.4062 43.5 42C43.5 43.6875 44.8125 45 46.5 45Z" fill="#353535"/>
</svg>
