<svg width="50" height="48" viewBox="0 0 50 48" fill="none" xmlns="http://www.w3.org/2000/svg">
<path d="M29.125 25.875L33.25 26.4375C34.1875 26.625 35.0312 27.2812 35.3125 28.2188C35.5938 29.1562 35.4062 30.1875 34.6562 30.8438L31.6562 33.75L32.4062 37.875C32.6875 39.5625 31.2812 40.875 29.7812 40.875C29.4062 40.875 29.0312 40.7812 28.6562 40.5938L25 38.625L21.25 40.5938C20.875 40.7812 20.5 40.875 20.0312 40.875C18.625 40.875 17.2188 39.5625 17.5 37.875L18.25 33.75L15.25 30.8438C14.5 30.1875 14.3125 29.1562 14.5938 28.2188C14.875 27.2812 15.7188 26.625 16.6562 26.4375L20.7812 25.875L22.6562 22.125C23.125 21.2812 24.0625 20.8125 25 20.8125C25.8438 20.8125 26.7812 21.1875 27.25 22.125L29.125 25.875ZM28.4688 32.7188L31.9375 29.3438L27.1562 28.5938L24.9062 24.1875L22.75 28.5938L17.9688 29.3438L21.4375 32.7188L20.5938 37.5938L24.9062 35.25L29.3125 37.5938L28.4688 32.7188ZM25 15C34.0938 15 41.5 22.4062 41.5 31.5C41.5 40.6875 34.0938 48 25 48C15.8125 48 8.5 40.6875 8.5 31.5C8.5 22.4062 15.8125 15 25 15ZM25 45C32.4062 45 38.5 39 38.5 31.5C38.5 24.0938 32.4062 18 25 18C17.5 18 11.5 24.0938 11.5 31.5C11.5 39 17.5 45 25 45ZM11.5 18C10.9375 18 10.4688 17.8125 10.1875 17.3438L1.46875 4.40625C0.90625 3.5625 0.8125 2.4375 1.28125 1.59375C1.75 0.65625 2.6875 0 3.71875 0H13.5625C14.5 0 15.4375 0.5625 16 1.40625L22 11.4375C22.375 12.0938 22.1875 13.0312 21.4375 13.5C20.7812 13.875 19.8438 13.6875 19.375 12.9375L13.375 2.90625L4.09375 3L12.7188 15.75C13.1875 16.4062 13 17.3438 12.25 17.8125C12.0625 18 11.7812 18 11.5 18ZM48.625 1.59375C49.0938 2.4375 49.0938 3.5625 48.4375 4.5L39.7188 17.3438C39.4375 17.8125 38.9688 18 38.5 18C38.125 18 37.8438 18 37.6562 17.8125C36.9062 17.3438 36.7188 16.4062 37.1875 15.6562L45.8125 3H36.3438L30.5312 12.9375C30.0625 13.6875 29.125 13.875 28.4688 13.5C27.7188 13.0312 27.5312 12.0938 27.9062 11.4375L33.9062 1.40625C34.4688 0.5625 35.4062 0 36.3438 0H46.1875C47.2188 0 48.1562 0.65625 48.625 1.59375Z" fill="#353535"/>
</svg>
