<svg width="49" height="48" viewBox="0 0 49 48" fill="none" xmlns="http://www.w3.org/2000/svg">
<path d="M48.9062 24C48.9062 27.375 47.125 30.4688 44.3125 32.0625C45.1562 35.25 44.2188 38.625 41.875 40.9688C39.4375 43.5 36.0625 44.25 32.9688 43.4062C31.375 46.2188 28.2812 48 24.9062 48C21.625 48 18.5312 46.2188 16.9375 43.4062C13.9375 44.25 10.4688 43.5 7.9375 40.9688C5.59375 38.625 4.75 35.25 5.59375 32.0625C2.78125 30.4688 0.90625 27.375 0.90625 24C0.90625 20.7188 2.78125 17.625 5.59375 16.0312C4.75 12.8438 5.6875 9.46875 7.9375 7.03125C10.2812 4.6875 13.75 3.84375 16.9375 4.6875C18.5312 1.875 21.625 0 24.9062 0C28.2812 0 31.375 1.875 32.9688 4.6875C36.1562 3.84375 39.5312 4.6875 41.875 7.03125C44.2188 9.46875 45.1562 12.8438 44.3125 16.0312C47.125 17.625 48.9062 20.7188 48.9062 24ZM40.375 30.4688C41.3125 30.0938 46 28.9688 46 24C46 19.2188 41.5938 18.0938 40.375 17.625C40.8438 16.7812 43.2812 12.6562 39.8125 9.1875C36.4375 5.8125 32.5 8.0625 31.375 8.625C31 7.6875 29.875 3 25 3C20.2188 3 19 7.40625 18.5312 8.625C17.6875 8.15625 13.5625 5.71875 10.0938 9.1875C6.71875 12.5625 8.96875 16.5 9.53125 17.625C8.59375 18 4 19.125 4 24C4 28.7812 8.40625 30 9.53125 30.4688C9.0625 31.3125 6.625 35.4375 10.0938 38.9062C12.8125 41.625 15.5312 40.875 18.5312 39.4688C18.9062 40.4062 20.0312 45 25 45C29.7812 45 30.9062 40.5938 31.375 39.4688C34.375 40.875 37.0938 41.625 39.8125 38.9062C43.1875 35.5312 40.9375 31.5938 40.375 30.4688ZM31.375 18C31.9375 17.4375 32.9688 17.4375 33.5312 18C34.0938 18.5625 34.0938 19.5 33.5312 20.0625L23.5 30.0938C23.2188 30.375 22.8438 30.5625 22.4688 30.5625C22.0938 30.5625 21.7188 30.375 21.4375 30.0938L16.375 25.125C15.8125 24.5625 15.8125 23.5312 16.375 22.9688C16.9375 22.4062 17.9688 22.4062 18.5312 22.9688L22.4688 26.9062L31.375 18Z" fill="#353535"/>
</svg>
