<svg width="54" height="48" viewBox="0 0 54 48" fill="none" xmlns="http://www.w3.org/2000/svg">
<path d="M53.9062 6.09375C53.9062 7.6875 53.3438 9.28125 52.2188 10.4062L26.8125 35.8125C26.8125 36.1875 26.8125 36.5625 26.8125 36.8438C26.8125 45.9375 16.9688 48 7.96875 48H3C1.3125 48 0 46.5 0 45C0 43.4062 1.3125 42 3 42C5.8125 42 7.59375 40.2188 7.59375 37.9688C7.59375 37.5 7.5 37.4062 7.5 36.6562C7.5 31.3125 11.8125 27 17.25 27C17.5312 27 17.9062 27.0938 18.2812 27.1875L43.5938 1.78125C44.7188 0.65625 46.3125 0 47.9062 0C51.1875 0 53.9062 2.71875 53.9062 6.09375ZM23.9062 36.8438C23.9062 36.6562 23.9062 36.4688 23.9062 36.375L17.625 30.0938C15.6562 29.9062 10.5 31.3125 10.5 36.75C10.5 37.3125 10.5938 37.5 10.5938 38.0625C10.5938 43.5 5.4375 45 3 45H7.96875C15 45 23.9062 43.7812 23.9062 36.8438ZM25.0312 33.2812L31.0312 27.2812L26.625 22.9688L20.625 28.9688L25.0312 33.2812ZM51 6.09375C51 4.40625 49.5938 3 47.9062 3C47.0625 3 46.3125 3.375 45.6562 3.9375L28.875 20.8125L33.1875 25.125L50.0625 8.34375C50.625 7.6875 51 6.9375 51 6.09375ZM46.6875 31.7812C47.5312 32.625 48.0938 33.6562 48.375 34.7812L50.9062 46.2188C50.9062 46.3125 51 46.5 51 46.5938C51 47.3438 50.25 48 49.5 48C49.4062 48 49.2188 48 49.125 48C49.125 48 41.25 46.3125 37.6875 45.4688C35.625 45 35.25 44.3438 29.625 38.7188C29.7188 38.1562 29.8125 37.5938 29.8125 37.0312L31.0312 35.8125L36.9375 41.8125C37.6875 42.5625 37.6875 42.4688 47.4375 44.625L45.375 35.4375C45.2812 34.875 45 34.3125 44.625 33.9375L38.7188 28.125L40.875 25.9688L46.6875 31.7812ZM15.1875 24.2812C3.9375 13.0312 2.90625 12.75 3 9.5625C3 8.0625 3.5625 6.46875 4.6875 5.34375L8.25 1.78125C9.375 0.65625 10.9688 0 12.4688 0C13.9688 0 15.5625 0.65625 16.6875 1.78125L27.9375 13.125L25.875 15.2812L21.2812 10.6875L13.5938 18.4688L18.1875 22.875L17.1562 24C16.4062 24 15.8438 24.1875 15.1875 24.2812ZM6 9.5625C6 10.3125 6.28125 11.0625 6.84375 11.625L11.5312 16.4062L19.3125 8.625L14.625 3.9375C14.0625 3.375 13.3125 3 12.4688 3C11.7188 3 10.875 3.375 10.3125 3.9375L6.84375 7.40625C6.28125 8.0625 6 8.8125 6 9.5625Z" fill="#353535"/>
</svg>
