<svg width="48" height="42" viewBox="0 0 48 42" fill="none" xmlns="http://www.w3.org/2000/svg">
<path d="M43.5 0C45.9375 0 48 2.0625 48 4.5V10.5C48 11.3438 47.25 12 46.5 12H45V36C45 39.375 42.2812 42 39 42H9C5.625 42 3 39.375 3 36V12H1.5C0.65625 12 0 11.3438 0 10.5V4.5C0 2.0625 1.96875 0 4.5 0H43.5ZM42 36V12H6V36C6 37.6875 7.3125 39 9 39H39C40.5938 39 42 37.6875 42 36ZM45 9V4.5C45 3.75 44.25 3 43.5 3H4.5C3.65625 3 3 3.75 3 4.5V9H45ZM16.5 21C15.6562 21 15 20.3438 15 19.5C15 18.75 15.6562 18 16.5 18H31.5C32.25 18 33 18.75 33 19.5C33 20.3438 32.25 21 31.5 21H16.5Z" fill="#353535"/>
</svg>
