<svg width="46" height="46" viewBox="0 0 46 46" fill="none" xmlns="http://www.w3.org/2000/svg">
<path d="M23 0.5C35.375 0.5 45.4062 10.625 45.4062 23C45.4062 35.4688 35.375 45.5 23 45.5C10.5312 45.5 0.5 35.4688 0.5 23C0.5 10.625 10.5312 0.5 23 0.5ZM42.5 23C42.5 20.9375 42.125 18.9688 41.4688 17H34.5312C34.8125 18.9688 35 20.9375 35 23C35 25.1562 34.8125 27.125 34.5312 29H41.4688C42.125 27.125 42.5 25.1562 42.5 23ZM23 42.5C26 42.5 29.1875 38.4688 30.7812 32H15.0312C16.7188 38.4688 19.9062 42.5 23 42.5ZM14.375 29H31.5312C31.8125 27.2188 32 25.1562 32 23C32 20.9375 31.8125 18.875 31.5312 17H14.375C14.0938 18.875 14 20.9375 14 23C14 25.1562 14.0938 27.2188 14.375 29ZM3.5 23C3.5 25.1562 3.78125 27.125 4.4375 29H11.375C11.0938 27.125 10.9062 25.1562 10.9062 23C10.9062 20.9375 11.0938 18.9688 11.375 17H4.4375C3.78125 18.9688 3.5 20.9375 3.5 23ZM23 3.5C19.9062 3.5 16.7188 7.625 15.0312 14H30.875C29.1875 7.625 26 3.5 23 3.5ZM40.25 14C38.0938 9.875 34.4375 6.59375 30.0312 4.90625C31.7188 7.25 33.125 10.3438 33.9688 14H40.25ZM15.875 4.90625C11.4688 6.59375 7.8125 9.875 5.65625 14H11.9375C12.7812 10.3438 14.1875 7.25 15.875 4.90625ZM5.65625 32C7.8125 36.2188 11.4688 39.5 15.875 41.1875C14.1875 38.8438 12.7812 35.75 11.9375 32H5.65625ZM30.0312 41.1875C34.4375 39.5 38.0938 36.2188 40.25 32H33.9688C33.125 35.75 31.7188 38.8438 30.0312 41.1875Z" fill="#353535"/>
</svg>
