<svg width="54" height="42" viewBox="0 0 54 42" fill="none" xmlns="http://www.w3.org/2000/svg">
<path d="M45 24C45.75 24 46.5 24.75 46.5 25.5C46.5 26.3438 45.75 27 45 27H33C32.1562 27 31.5 26.3438 31.5 25.5C31.5 24.75 32.1562 24 33 24H45ZM18 21C14.625 21 12 18.375 12 15C12 11.7188 14.625 9 18 9C21.2812 9 24 11.7188 24 15C24 18.375 21.2812 21 18 21ZM18 12C16.3125 12 15 13.4062 15 15C15 16.6875 16.3125 18 18 18C19.5938 18 21 16.6875 21 15C21 13.4062 19.5938 12 18 12ZM21 24C25.125 24 28.5 27.375 28.5 31.5C28.5 32.3438 27.75 33 27 33C26.1562 33 25.5 32.3438 25.5 31.5C25.5 29.0625 23.4375 27 21 27H15C12.4688 27 10.5 29.0625 10.5 31.5C10.5 32.3438 9.75 33 9 33C8.15625 33 7.5 32.3438 7.5 31.5C7.5 27.375 10.7812 24 15 24H21ZM48 0C51.2812 0 54 2.71875 54 6V36C54 39.375 51.2812 42 48 42H6C2.625 42 0 39.375 0 36V6C0 2.71875 2.625 0 6 0H48ZM51 36V6C51 4.40625 49.5938 3 48 3H6C4.3125 3 3 4.40625 3 6V36C3 37.6875 4.3125 39 6 39H48C49.5938 39 51 37.6875 51 36ZM45 18C45.75 18 46.5 18.75 46.5 19.5C46.5 20.3438 45.75 21 45 21H33C32.1562 21 31.5 20.3438 31.5 19.5C31.5 18.75 32.1562 18 33 18H45ZM45 12C45.75 12 46.5 12.75 46.5 13.5C46.5 14.3438 45.75 15 45 15H33C32.1562 15 31.5 14.3438 31.5 13.5C31.5 12.75 32.1562 12 33 12H45Z" fill="#353535"/>
</svg>
