<svg width="36" height="48" viewBox="0 0 36 48" fill="none" xmlns="http://www.w3.org/2000/svg">
<path d="M16.5 27.75C16.5 29.0625 15.4688 30 14.25 30H9.75C8.4375 30 7.5 29.0625 7.5 27.75V23.25C7.5 22.0312 8.4375 21 9.75 21H14.25C15.4688 21 16.5 22.0312 16.5 23.25V27.75ZM13.5 27V24H10.5V27H13.5ZM9.75 18C8.4375 18 7.5 17.0625 7.5 15.75V11.25C7.5 10.0312 8.4375 9 9.75 9H14.25C15.4688 9 16.5 10.0312 16.5 11.25V15.75C16.5 17.0625 15.4688 18 14.25 18H9.75ZM10.5 12V15H13.5V12H10.5ZM18 36C21.2812 36.0938 24 38.7188 24 42V46.5C24 47.25 23.25 48 22.5 48C21.6562 48 21 47.25 21 46.5V42C21 40.3125 19.5938 39 18 39C16.3125 39 15 40.3125 15 42V46.5C15 47.3438 14.25 48 13.5 48C12.6562 48 12 47.3438 12 46.5V42C12 38.7188 14.625 36.0938 18 36ZM26.25 9C27.4688 9 28.5 10.0312 28.5 11.25V15.75C28.5 17.0625 27.4688 18 26.25 18H21.75C20.4375 18 19.5 17.0625 19.5 15.75V11.25C19.5 10.0312 20.4375 9 21.75 9H26.25ZM25.5 15V12H22.5V15H25.5ZM30 0C33.2812 0 36 2.71875 36 6V46.5C36 47.3438 35.25 48 34.5 48C33.6562 48 33 47.3438 33 46.5V6C33 4.40625 31.5938 3 30 3H6C4.3125 3 3 4.40625 3 6V46.5C3 47.3438 2.25 48 1.5 48C0.65625 48 0 47.3438 0 46.5V6C0 2.71875 2.625 0 6 0H30ZM26.25 21C27.4688 21 28.5 22.0312 28.5 23.25V27.75C28.5 29.0625 27.4688 30 26.25 30H21.75C20.4375 30 19.5 29.0625 19.5 27.75V23.25C19.5 22.0312 20.4375 21 21.75 21H26.25ZM25.5 27V24H22.5V27H25.5Z" fill="#353535"/>
</svg>
