<svg width="53" height="49" viewBox="0 0 53 49" fill="none" xmlns="http://www.w3.org/2000/svg">
<path d="M49.5 16.125C51.9375 16.5 52.9688 19.5 51.1875 21.375L41.25 30.9375L43.5938 44.5312C43.875 46.5 42.375 48.0938 40.5938 48.0938C40.125 48.0938 39.6562 47.9062 39.1875 47.7188L27 41.25L14.7188 47.7188C14.25 47.9062 13.7812 48 13.3125 48C11.5312 48 10.0312 46.5 10.3125 44.4375L12.6562 30.8438L2.71875 21.2812C0.9375 19.5 1.96875 16.5 4.40625 16.125L18.0938 14.1562L24.2812 1.6875C24.8438 0.5625 25.875 0 26.9062 0C28.0312 0 29.0625 0.5625 29.625 1.6875L35.8125 14.1562L49.5 16.125ZM13.3125 45L25.5 38.625V6.09375L20.4375 16.125C20.25 16.5938 19.7812 16.875 19.3125 16.9688L4.875 19.125L15.2812 29.25C15.6562 29.5312 15.8438 30.0938 15.75 30.5625L13.3125 45ZM38.1562 30.6562C38.0625 30.0938 38.25 29.625 38.625 29.3438L49.0312 19.125L34.5938 16.9688C34.125 16.875 33.6562 16.5938 33.4688 16.125L28.5 6.09375V38.625L40.5938 45L38.1562 30.6562Z" fill="#353535"/>
</svg>
