<svg width="56" height="48" viewBox="0 0 56 48" fill="none" xmlns="http://www.w3.org/2000/svg">
<path d="M53.6875 44.8125C54.4375 45 55.0938 45.75 54.8125 46.5C54.7188 47.3438 53.9688 48 53.125 47.8125C50.3125 47.4375 47.6875 46.2188 45.8125 44.25C43.4688 46.5938 40.2812 47.9062 36.8125 47.9062C33.4375 47.9062 30.1562 46.5938 27.9062 44.25C25.6562 46.5938 22.375 47.9062 19 47.9062C15.5312 47.9062 12.25 46.5938 10 44.25C8.03125 46.2188 5.5 47.4375 2.6875 47.8125C1.84375 47.9062 1.09375 47.3438 1 46.5C0.8125 45.75 1.46875 45 2.3125 44.8125C4.9375 44.5312 7.28125 43.125 8.78125 41.0625C9.0625 40.6875 9.4375 40.4062 10 40.4062C10.4688 40.4062 10.9375 40.6875 11.2188 41.0625C12.9062 43.5 15.8125 44.9062 19 44.9062C22.0938 44.9062 25 43.5 26.7812 41.0625C27.3438 40.3125 28.6562 40.3125 29.2188 41.0625C30.9062 43.5 33.8125 44.9062 37 44.9062C40.0938 44.9062 43 43.5 44.7812 41.0625C45.3438 40.3125 46.6562 40.3125 47.2188 41.0625C48.625 43.125 51.0625 44.5312 53.6875 44.8125ZM14.875 40.125L5.03125 30.5625C4 29.25 3.71875 27.75 4.1875 26.3438C4.5625 24.9375 5.6875 23.8125 7 23.3438L10 22.4062V10.5C10 8.0625 11.9688 6 14.5 6L18.9062 6.09375L19 4.5C19 2.0625 20.9688 0 23.5 0H32.5C34.9375 0 37 2.0625 37 4.5V6.09375L41.5 6C43.9375 6 46 8.0625 46 10.5V22.4062L48.9062 23.3438C50.2188 23.8125 51.3438 24.9375 51.7188 26.3438C52.1875 27.75 51.9062 29.25 50.9688 30.375L41.0312 40.125C40.75 40.4062 40.375 40.5 40 40.5C39.5312 40.5 39.1562 40.4062 38.875 40.125C38.3125 39.4688 38.3125 38.5312 38.875 37.9688L48.8125 28.4062C48.9062 28.2188 49 27.6562 48.9062 27.1875C48.7188 26.7188 48.3438 26.3438 47.9688 26.25L29.5 20.1562V36C29.5 36.8438 28.75 37.5 28 37.5C27.1562 37.5 26.5 36.8438 26.5 36V20.1562L7.9375 26.25C7.46875 26.3438 7.1875 26.7188 7 27.1875C6.90625 27.6562 7 28.125 7.28125 28.5938L17.0312 37.9688C17.5938 38.5312 17.5938 39.4688 17.0312 40.125C16.4688 40.6875 15.5312 40.6875 14.875 40.125ZM22 4.5V6H34V4.5C34 3.75 33.25 3 32.5 3H23.5C22.6562 3 22 3.75 22 4.5ZM13 10.5V21.375L27.5312 16.5C27.9062 16.4062 28.1875 16.4062 28.4688 16.5L43 21.375V10.5C43 9.75 42.25 9 41.5 9H14.5C13.6562 9 13 9.75 13 10.5Z" fill="#353535"/>
</svg>
