<svg width="329" height="72" viewBox="0 0 329 72" fill="none" xmlns="http://www.w3.org/2000/svg">
<g filter="url(#filter0_d_1_383)">
<path d="M67.7144 59.3274C63.7549 59.3274 60.3826 58.1224 57.9663 55.8027C53.6691 51.7257 53.799 45.6956 53.8406 44.5408V33.4647C53.8406 31.5468 55.5917 29.9752 57.7585 29.9752C59.9201 29.9752 61.666 31.5468 61.666 33.4647V44.6362C61.666 44.7115 61.666 44.7818 61.6504 44.8521C61.5777 45.9668 61.8167 49.3157 63.6873 51.058C64.6226 51.9366 65.9373 52.3684 67.7092 52.3684C70.1098 52.3684 71.1542 51.6052 71.7622 51.0479C73.6796 49.2304 73.8302 45.7107 73.7783 44.8572C73.7627 44.7818 73.7627 44.7115 73.7627 44.6413V33.4647C73.7627 31.5468 75.5138 29.9752 77.6598 29.9752C79.8162 29.9752 81.5725 31.5468 81.5725 33.4647V44.5408C81.6297 45.6956 81.7492 51.7308 77.4624 55.8027C75.0306 58.1224 71.6842 59.3274 67.7144 59.3274Z" fill="#353535"/>
<path d="M113.135 35.3375C110.371 32.3451 106.541 30.8288 101.766 30.8288C99.2615 30.8288 97.0167 31.2003 95.0941 31.9585C94.7304 32.1191 94.3615 32.2848 94.0133 32.4606V20.8623C94.0133 19.9435 93.5457 19.11 92.7299 18.5175C92.6883 18.4924 92.6416 18.4673 92.6104 18.4422C91.1762 17.5736 89.103 17.5636 87.5909 18.6179C87.0505 19.0246 86.4321 19.7778 86.4321 20.9527V43.4161V46.268C86.7023 49.4513 87.8663 52.1876 89.924 54.4521C91.8206 56.5508 94.2472 57.9165 97.131 58.5692L97.3805 58.5993C98.7522 58.9207 100.228 59.0763 101.766 59.0763C106.541 59.0763 110.371 57.56 113.135 54.5625C115.52 51.9768 116.726 48.7533 116.726 44.9927C116.726 41.1768 115.52 37.9183 113.135 35.3375ZM107.196 50.8671C105.861 52.4889 104.146 53.2219 101.766 53.2219C99.1835 53.2219 97.3233 52.4889 95.9411 50.832C94.6629 49.3609 94.0133 47.3575 94.0133 44.9475C94.0133 42.5023 94.6681 40.5141 95.9567 38.9927C97.3285 37.381 99.1835 36.6329 101.766 36.6329C104.104 36.6329 105.835 37.386 107.196 38.9777C108.469 40.5191 109.119 42.5325 109.119 44.9475C109.119 47.3425 108.464 49.3358 107.196 50.8671Z" fill="#353535"/>
<path d="M147.754 35.3375C144.985 32.3451 141.165 30.8288 136.406 30.8288C133.896 30.8288 131.636 31.2003 129.718 31.9585C129.349 32.1191 128.98 32.2848 128.637 32.4606V20.8623C128.637 19.9435 128.185 19.11 127.349 18.5175C127.323 18.4924 127.281 18.4673 127.229 18.4422C125.795 17.5736 123.727 17.5636 122.21 18.6179C121.695 19.0246 121.056 19.7778 121.056 20.9527V43.4161V46.268C121.326 49.4513 122.49 52.1876 124.548 54.4521C126.45 56.5508 128.861 57.9165 131.755 58.5692L132.01 58.5993C133.381 58.9207 134.842 59.0763 136.406 59.0763C141.171 59.0763 144.99 57.56 147.754 54.5625C150.144 51.9768 151.345 48.7533 151.345 44.9927C151.345 41.1768 150.15 37.9183 147.754 35.3375ZM141.815 50.8671C140.485 52.4889 138.765 53.2219 136.406 53.2219C133.802 53.2219 131.958 52.4889 130.591 50.832C129.287 49.3609 128.643 47.3575 128.643 44.9475C128.643 42.5023 129.287 40.5141 130.591 38.9927C131.963 37.381 133.808 36.6329 136.406 36.6329C138.744 36.6329 140.469 37.386 141.815 38.9777C143.078 40.5191 143.737 42.5325 143.737 44.9475C143.737 47.3425 143.078 49.3358 141.815 50.8671Z" fill="#353535"/>
<path d="M161.518 18.4922C160.188 17.5433 158.214 17.5734 156.909 18.4922C156.883 18.5173 156.847 18.5424 156.811 18.5675C156.068 19.1901 155.642 20.0838 155.642 21.083V55.6518C155.642 56.6158 156.011 57.4995 156.811 58.2225C157.491 58.7698 158.333 59.0711 159.253 59.0711C160.136 59.0711 160.952 58.7698 161.544 58.2878C162.402 57.6502 162.849 56.7414 162.849 55.7121V21.1282C162.854 20.0637 162.402 19.1299 161.518 18.4922Z" fill="#353535"/>
<path d="M192.616 48.7383C189.628 47.1567 187.846 49.5166 187.846 49.5166C187.336 50.2697 186.791 50.8822 186.224 51.3241C185.149 52.1776 183.834 52.5843 182.166 52.5843C180.129 52.5843 178.591 51.781 177.36 50.0237C176.544 48.9141 175.977 47.5785 175.671 46.0622H194.315C195.396 46.0622 196.284 45.1986 196.284 44.1593V43.381C196.284 39.1936 195.12 35.5535 192.797 32.5861C190.158 29.2522 186.572 27.5552 182.166 27.5552C177.76 27.5552 174.19 29.2723 171.571 32.6263C169.311 35.5786 168.157 39.1936 168.157 43.381C168.157 47.5584 169.311 51.1484 171.582 54.0755C174.185 57.4094 177.755 59.1165 182.161 59.1165C185.232 59.1165 187.949 58.3734 190.22 56.9174C191.644 56.0487 193.031 55.0345 193.863 53.5684C195.567 50.5358 192.616 48.7383 192.616 48.7383ZM177.448 36.4321C178.674 34.8003 180.176 34.0371 182.166 34.0371C184.167 34.0371 185.684 34.8053 186.936 36.4572C187.643 37.4162 188.147 38.4254 188.469 39.5451H175.91C176.227 38.3953 176.736 37.361 177.448 36.4321Z" fill="#353535"/>
<path d="M45.7948 36.6274C44.8855 35.809 43.8255 35.1212 42.6459 34.5538C43.1708 33.871 43.5968 33.1329 43.9086 32.3848C44.6777 30.6576 44.8855 28.7949 44.5425 26.8719C44.0281 23.9196 42.5264 21.5547 40.0479 19.7924C37.3459 17.9096 34.0671 17.2568 30.2895 17.8644L18.1824 19.8275C15.9272 20.1941 14.2229 21.1782 13.1109 22.7698C12.134 24.1656 11.8067 25.7773 12.1081 27.5145L16.6287 53.5981C16.9301 55.3102 17.7875 56.711 19.18 57.7453C20.7545 58.8851 22.7031 59.2767 24.979 58.9202L37.9122 56.8215C42.0484 56.1487 45.1869 54.3562 47.2549 51.5044C49.1256 48.9186 49.7959 46.0015 49.2451 42.8333C48.8086 40.3479 47.6395 38.2542 45.7948 36.6274ZM40.9624 48.0098C40.0531 49.2851 38.6761 50.0784 36.7379 50.3947L24.4542 52.383C24.2151 52.4081 24.1164 52.4081 24.106 52.4081C24.0748 52.368 24.0333 52.3228 24.0177 52.2023L22.199 41.6383L21.0818 35.2567L19.5646 26.5103C19.549 26.3698 19.5646 26.2794 19.5646 26.2794C19.5646 26.2794 19.6685 26.194 19.8919 26.1689L31.0897 24.3463C32.8148 24.0652 34.1606 24.3012 35.2778 25.0945C36.2806 25.7924 36.8834 26.7313 37.0964 28.0116C37.3043 29.2267 37.0705 30.3011 36.3326 31.3204C35.5272 32.435 34.3321 33.0877 32.6589 33.3639L27.4939 34.2024C27.442 34.2174 27.39 34.2024 27.338 34.2174C25.4258 34.5337 24.1164 36.2057 24.4178 37.9881C24.7296 39.7555 26.543 40.9354 28.4448 40.6241C28.4916 40.6241 28.5435 40.609 28.5903 40.594L34.5867 39.6249C36.5716 39.3086 38.2084 39.5998 39.575 40.5337C40.8117 41.3973 41.5444 42.537 41.7938 44.0333C42.0536 45.5446 41.7886 46.84 40.9624 48.0098Z" fill="#353535"/>
<path d="M313.3 18.7333L311.882 16.75H310.832V18.7232H310.162V13.9434H312.183C312.666 13.9434 313.071 14.0639 313.394 14.3199C313.716 14.576 313.887 14.9074 313.887 15.3241C313.887 15.6605 313.763 15.9467 313.529 16.1777C313.321 16.4237 313.03 16.5793 312.671 16.6747L314.147 18.7383H313.3V18.7333ZM312.853 15.9367C313.051 15.8111 313.17 15.5852 313.17 15.3241C313.17 15.058 313.077 14.8672 312.879 14.7367C312.682 14.6111 312.469 14.5509 312.235 14.5509H310.837V16.1425H312.188C312.417 16.1375 312.63 16.0722 312.853 15.9367Z" fill="#353535"/>
<path d="M311.861 20.6309C309.398 20.6309 307.397 18.7029 307.397 16.328C307.397 13.9431 309.398 12 311.861 12C314.314 12 316.314 13.9431 316.314 16.328C316.314 18.7029 314.314 20.6309 311.861 20.6309ZM311.861 12.5925C309.725 12.5925 308.005 14.2694 308.005 16.328C308.005 18.3665 309.725 20.0485 311.861 20.0485C313.981 20.0485 315.722 18.3665 315.722 16.328C315.722 14.2644 313.986 12.5925 311.861 12.5925Z" fill="#353535"/>
<path d="M230.377 19.1799H202.016C200.078 19.1799 198.79 20.4854 198.79 22.4335C198.79 24.3866 200.078 25.6971 202.016 25.6971H212.902V56.1789C212.902 57.158 213.282 58.0266 214.071 58.7647C214.752 59.2969 215.584 59.5881 216.508 59.5881C217.392 59.5881 218.208 59.2919 218.894 58.7345C219.678 58.0818 220.104 57.1781 220.104 56.1789V25.6971H230.372C231.681 25.6971 232.523 25.1648 232.908 24.8084C233.671 24.1858 234.092 23.3423 234.092 22.4285C234.092 21.4946 233.671 20.6259 232.918 20.0184C232.466 19.6268 231.619 19.1799 230.377 19.1799Z" fill="#353535"/>
<path d="M294.515 36.0254L307.313 24.1058C308.098 23.3175 308.493 22.4489 308.493 21.5501C308.493 20.6163 308.082 19.7577 307.256 19.0799C306.55 18.5527 305.697 18.3016 304.778 18.3569C303.775 18.3619 302.86 18.7686 302.164 19.4514L284.674 35.7091V21.7158C284.674 20.6715 284.206 19.7527 283.359 19.115C282.689 18.6581 281.899 18.402 281.073 18.402C280.184 18.402 279.4 18.638 278.631 19.1903C277.882 19.8029 277.461 20.7117 277.461 21.7158V56.0839C277.461 57.1031 277.825 57.9717 278.631 58.6947C279.956 59.7642 282.07 59.8194 283.468 58.6947C284.248 58.047 284.679 57.1182 284.679 56.0839V45.0228L289.298 40.7199L303.401 58.047C304.009 58.8704 304.871 59.3876 305.869 59.4981C306.087 59.5483 306.29 59.5633 306.498 59.5633C307.121 59.5633 307.724 59.4177 308.29 59.1265C308.342 59.1165 308.384 59.1014 308.425 59.0612C309.511 58.4336 309.896 57.55 310.026 56.8621C310.125 56.2345 310.093 55.2454 309.257 54.1408L294.515 36.0254Z" fill="#353535"/>
<path d="M269.432 22.3687C271.048 20.2649 270.596 17.2976 268.429 15.7411C266.257 14.1796 263.192 14.6013 261.565 16.695C261.435 16.8909 261.316 17.1017 261.202 17.2976L261.191 17.2875C258.687 20.7569 258.604 28.454 258.604 28.454C258.604 28.454 266.226 26.1996 268.954 22.8808C269.11 22.7201 269.282 22.5594 269.432 22.3687Z" fill="#353535"/>
<path d="M252.726 60C241.165 60 231.754 50.9022 231.754 39.7407C231.754 28.5642 241.165 19.4915 252.726 19.4915C253.074 19.4915 253.443 19.4915 253.791 19.5166C255.776 19.612 257.32 21.2588 257.221 23.1818C257.101 25.0847 255.439 26.591 253.433 26.4655C253.194 26.4454 252.96 26.4454 252.726 26.4454C245.129 26.4454 238.941 32.4102 238.941 39.7457C238.941 47.0762 245.135 53.0461 252.726 53.0461C260.297 53.0461 266.475 47.0762 266.475 39.7457C266.475 37.1499 265.711 34.6244 264.251 32.4604C263.16 30.8588 263.628 28.6998 265.28 27.6705C266.953 26.596 269.167 27.0429 270.274 28.6496C272.513 31.9634 273.693 35.7993 273.693 39.7457C273.687 50.9072 264.277 60 252.726 60Z" fill="#353535"/>
</g>
<defs>
<filter id="filter0_d_1_383" x="0" y="0" width="328.314" height="72" filterUnits="userSpaceOnUse" color-interpolation-filters="sRGB">
<feFlood flood-opacity="0" result="BackgroundImageFix"/>
<feColorMatrix in="SourceAlpha" type="matrix" values="0 0 0 0 0 0 0 0 0 0 0 0 0 0 0 0 0 0 127 0" result="hardAlpha"/>
<feOffset/>
<feGaussianBlur stdDeviation="6"/>
<feComposite in2="hardAlpha" operator="out"/>
<feColorMatrix type="matrix" values="0 0 0 0 1 0 0 0 0 1 0 0 0 0 1 0 0 0 1 0"/>
<feBlend mode="normal" in2="BackgroundImageFix" result="effect1_dropShadow_1_383"/>
<feBlend mode="normal" in="SourceGraphic" in2="effect1_dropShadow_1_383" result="shape"/>
</filter>
</defs>
</svg>
