<svg width="370" height="74" viewBox="0 0 370 74" fill="none" xmlns="http://www.w3.org/2000/svg">
<g filter="url(#filter0_d_1_369)">
<path d="M43.5759 15.273C44.8913 15.9057 46.0985 16.6541 47.2147 17.5179C48.3251 18.3818 49.3615 19.3392 50.3181 20.3957C52.0663 22.5911 53.4444 25.1002 54.4466 27.9229C54.8794 29.4031 55.2211 30.8942 55.4546 32.4184C55.6937 33.9315 55.8418 35.4722 55.8816 37.0294C55.8418 38.5921 55.7108 40.0942 55.4944 41.5523C55.2723 43.0105 54.9648 44.4301 54.5719 45.8167C53.6152 48.7274 52.26 51.2585 50.5174 53.4045C48.6895 55.6825 46.463 57.4762 43.8435 58.7858C42.494 59.5011 41.0248 60.0238 39.4588 60.365C37.8928 60.7006 36.23 60.8492 34.4818 60.8107C32.8247 60.8492 31.2588 60.7116 29.7725 60.3925C28.292 60.0789 26.8968 59.6057 25.5814 58.9729C22.8765 57.7899 20.6272 56.1006 18.8448 53.9107C16.9201 51.8418 15.4794 49.3327 14.5227 46.3834C14.0045 44.9913 13.6059 43.5167 13.3497 41.965C13.0763 40.4023 12.9681 38.7626 13.008 37.0294C13.008 35.5602 13.1162 34.0801 13.3383 32.6055C13.5547 31.1253 13.902 29.6562 14.3861 28.1761C14.8188 26.7895 15.3769 25.4689 16.0545 24.2253C16.7265 22.9818 17.5237 21.7878 18.4405 20.6488C19.3118 19.5978 20.3083 18.6349 21.4187 17.771C22.5292 16.9072 23.7592 16.1203 25.1144 15.405C26.4299 14.7723 27.8592 14.2935 29.4081 13.9799C30.9513 13.6608 32.6482 13.4847 34.4761 13.4407C37.8416 13.4847 40.871 14.0955 43.5759 15.273ZM38.075 55.2698C39.2139 55.0002 40.2788 54.5875 41.2867 54.0372C43.1146 53.0248 44.692 51.6382 45.996 49.8664C47.1691 48.1827 48.0916 46.1964 48.7465 43.9239C49.3102 41.7339 49.6177 39.4339 49.6633 37.0294C49.6177 35.9784 49.538 34.911 49.4013 33.838C49.2704 32.7595 49.0711 31.6536 48.8091 30.5201C48.1543 28.3631 47.2431 26.4043 46.0587 24.6325C44.749 22.9433 43.183 21.5347 41.3494 20.3957C39.3848 19.3392 37.0956 18.7945 34.4761 18.7505C31.8168 18.7505 29.5504 19.2567 27.6713 20.2636C25.7067 21.2816 24.1179 22.6076 22.8993 24.2529C21.5896 25.9806 20.65 27.9174 20.0862 30.0689C19.7332 31.2079 19.4826 32.3579 19.3289 33.5189C19.1751 34.6799 19.1011 35.8519 19.1011 37.0294C19.0555 39.3074 19.3403 41.5193 19.9496 43.6763C20.2115 44.8097 20.5589 45.8882 20.9973 46.9007C21.4301 47.9076 21.9768 48.8375 22.6373 49.6794C23.2011 50.6038 23.8901 51.4291 24.6931 52.1444C25.5017 52.8597 26.4071 53.476 27.4093 53.9767C28.366 54.5655 29.4422 55.0002 30.6153 55.2698C31.7941 55.5449 33.081 55.6604 34.4761 55.6219C35.746 55.6659 36.9475 55.5504 38.075 55.2698Z" fill="#353535" stroke="#353535" stroke-width="0.3545" stroke-miterlimit="10"/>
<path d="M63.1426 14.1389H68.5694V59.418H63.1426V14.1389Z" fill="#353535" stroke="#353535" stroke-width="0.3545" stroke-miterlimit="10"/>
<path d="M78.792 14.1389H84.5491V19.8944H78.792V14.1389ZM78.792 27.1631H84.5491V59.352H78.792V27.1631Z" fill="#353535" stroke="#353535" stroke-width="0.3545" stroke-miterlimit="10"/>
<path d="M104.045 59.3521C102.906 56.6174 101.79 53.8828 100.708 51.1646C99.615 48.4464 98.5502 45.7172 97.5024 42.977C96.3635 40.3194 95.2531 37.6287 94.1654 34.883C93.0721 32.1373 91.9788 29.3806 90.8911 26.5909H97.1721L107.576 53.6627C108.362 51.5938 109.216 49.3818 110.127 47.0213C110.958 44.7873 111.83 42.4983 112.746 40.1323C113.572 37.8488 114.466 35.5323 115.429 33.1718C115.821 32.0823 116.237 30.9818 116.676 29.8814C117.114 28.7864 117.57 27.6914 118.054 26.5909H124.204C123.065 29.3751 121.954 32.1263 120.867 34.85C119.773 37.5682 118.709 40.2534 117.661 42.911C116.522 45.6512 115.411 48.3914 114.324 51.1261C113.231 53.8662 112.137 56.6119 111.055 59.3466H104.045V59.3521Z" fill="#353535" stroke="#353535" stroke-width="0.3545" stroke-miterlimit="10"/>
<path d="M134.413 45.0627C134.368 46.4933 134.647 47.7973 135.262 48.9803C135.524 49.6571 135.837 50.2624 136.207 50.8126C136.583 51.3574 137.027 51.8416 137.551 52.2653C137.984 52.766 138.485 53.2172 139.054 53.5913C139.618 53.971 140.256 54.2901 140.951 54.5433C142.215 55.132 143.61 55.4071 145.136 55.3631C147.317 55.4071 149.173 55.0055 150.705 54.1581C151.4 53.7784 152.015 53.3988 152.533 53.0191C153.057 52.6449 153.49 52.2378 153.843 51.8251H160.391C159.611 53.1732 158.689 54.3672 157.641 55.3961C156.593 56.4306 155.437 57.322 154.173 58.0813C152.818 58.8846 151.4 59.4844 149.919 59.8861C148.433 60.2822 146.884 60.4693 145.273 60.4253C142.784 60.4253 140.489 59.9796 138.405 59.0937C136.264 58.2519 134.448 57.0248 132.973 55.4236C132.141 54.6698 131.435 53.8224 130.843 52.898C130.251 51.9736 129.761 50.9337 129.368 49.8002C128.884 48.7437 128.537 47.6268 128.32 46.4437C128.104 45.2662 128.013 44.0227 128.058 42.7186C128.058 40.3141 128.451 38.0361 129.231 35.8902C129.579 34.8337 130.029 33.8488 130.575 32.9134C131.122 31.989 131.782 31.1031 132.568 30.2557C133.963 28.6986 135.757 27.4055 137.933 26.3931C138.935 25.9749 140.039 25.6502 141.241 25.4191C142.443 25.188 143.735 25.0505 145.13 25.0065C146.617 25.0065 148 25.155 149.287 25.4467C150.574 25.7438 151.781 26.162 152.92 26.7122C155.061 27.8897 156.85 29.3974 158.285 31.2022C158.945 32.1706 159.532 33.183 160.056 34.2395C160.574 35.2959 161.012 36.4129 161.365 37.5904C161.627 38.8174 161.821 40.05 161.957 41.288C162.083 42.5316 162.157 43.7916 162.157 45.0516H134.413V45.0627ZM155.881 40.4462C155.836 39.7694 155.751 39.0981 155.62 38.4158C155.489 37.7445 155.289 37.0952 155.027 36.4624C154.418 35.2739 153.655 34.1789 152.732 33.1665C151.73 32.2806 150.591 31.5433 149.327 30.9545C148.627 30.7069 147.932 30.5144 147.232 30.3878C146.531 30.2612 145.836 30.1787 145.136 30.1347C143.57 30.1347 142.192 30.3878 141.013 30.8885C140.358 31.1911 139.755 31.5158 139.208 31.8679C138.661 32.2311 138.172 32.6163 137.733 33.0399C136.731 34.0084 135.996 35.1088 135.512 36.3249C134.903 37.6344 134.573 38.999 134.527 40.4351H155.881V40.4462Z" fill="#353535" stroke="#353535" stroke-width="0.3545" stroke-miterlimit="10"/>
<path d="M198.519 53.0959C200.7 51.5717 202.426 49.3652 203.69 46.4545H209.84C209.06 48.5234 208.137 50.3392 207.095 51.8963C206.48 52.7382 205.837 53.5305 205.165 54.2679C204.487 55.0052 203.775 55.7095 203.035 56.3863C201.464 57.7784 199.63 58.8238 197.534 59.5171C195.444 60.2159 193.081 60.5406 190.468 60.4966C186.931 60.5406 183.856 59.9518 181.242 58.7248C179.882 58.1801 178.657 57.4868 177.541 56.6394C176.431 55.7975 175.434 54.8291 174.563 53.7286C172.729 51.6597 171.402 49.1341 170.571 46.1408C170.087 44.7102 169.745 43.1916 169.523 41.5904C169.307 39.9837 169.199 38.2999 169.199 36.5282C169.153 33.5349 169.569 30.6021 170.446 27.7354C171.18 24.9567 172.45 22.4476 174.238 20.2081C175.07 19.1517 176.026 18.1942 177.12 17.3304C178.213 16.4665 179.454 15.6742 180.855 14.9644C182.159 14.3261 183.611 13.8529 185.206 13.5392C186.8 13.2201 188.56 13.044 190.473 13C192.831 13 195.029 13.3191 197.084 13.9519C199.049 14.6672 200.86 15.5696 202.517 16.6701C204.043 17.8916 205.438 19.2397 206.708 20.7198C207.836 22.321 208.844 23.9828 209.721 25.716H203.303C200.598 20.8684 196.321 18.4198 190.473 18.3813C187.859 18.3813 185.604 18.8875 183.737 19.9C181.766 20.9124 180.183 22.2385 178.959 23.8837C177.649 25.6115 176.71 27.5538 176.14 29.7052C175.793 30.8387 175.542 31.9832 175.389 33.1167C175.235 34.2557 175.178 35.3892 175.223 36.5337C175.178 38.0138 175.241 39.4004 175.423 40.7045C175.594 42.0141 175.878 43.2411 176.271 44.3746C176.579 45.5961 176.983 46.7021 177.484 47.6925C177.985 48.6884 178.583 49.5798 179.284 50.3832C179.893 51.225 180.605 51.9624 181.413 52.5896C182.216 53.2279 183.122 53.7286 184.13 54.1138C185.046 54.576 186.026 54.9116 187.074 55.1262C188.116 55.3353 189.255 55.4399 190.479 55.4399C193.525 55.4729 196.213 54.697 198.519 53.0959Z" fill="#353535" stroke="#353535" stroke-width="0.3545" stroke-miterlimit="10"/>
<path d="M235.054 32.5444C233.351 32.5444 231.819 32.858 230.47 33.4908C229.029 34.2061 227.782 35.092 226.734 36.1485C226.165 36.7372 225.692 37.3645 225.299 38.0138C224.9 38.6686 224.576 39.3564 224.314 40.0662C223.967 40.8255 223.716 41.5958 223.562 42.3717C223.409 43.1585 223.352 43.9508 223.397 44.7432V59.418H217.771V26.6624H223.397V34.1841C224.974 31.7411 226.78 29.8207 228.83 28.4286C230.794 27.1631 232.861 26.4037 235.048 26.1506V32.5444H235.054Z" fill="#353535" stroke="#353535" stroke-width="0.3545" stroke-miterlimit="10"/>
<path d="M263.055 26.3431C265.151 27.2675 266.922 28.511 268.357 30.0737C269.797 31.7189 270.908 33.6392 271.699 35.8292C272.4 38.1512 272.787 40.6658 272.878 43.3564C272.878 45.7995 272.525 48.0555 271.83 50.1189C271.437 51.2193 270.965 52.2428 270.424 53.1892C269.883 54.1411 269.256 54.994 268.562 55.7533C267.816 56.5952 267.001 57.3435 266.107 57.9983C265.213 58.6476 264.24 59.1868 263.192 59.6105C260.971 60.5789 258.483 61.0411 255.732 60.9971C253.027 60.9971 250.664 60.5569 248.66 59.671C246.57 58.8677 244.804 57.6736 243.358 56.0669C241.832 54.5538 240.699 52.672 239.953 50.4435C239.081 48.3361 238.643 45.9701 238.643 43.3619C238.552 42.1844 238.592 41.0124 238.746 39.8514C238.894 38.6904 239.167 37.5459 239.56 36.4014C239.867 35.3505 240.289 34.338 240.841 33.3641C241.382 32.3957 242.026 31.4658 242.766 30.5854C243.466 29.7821 244.258 29.0448 245.152 28.368C246.052 27.6912 247.059 27.0804 248.198 26.5357C249.246 26.035 250.391 25.6498 251.632 25.4022C252.873 25.1436 254.24 25.0225 255.726 25.0225C258.437 25.017 260.88 25.4572 263.055 26.3431ZM260.441 55.1205C261.751 54.4437 262.907 53.4753 263.909 52.2043C264.832 51.0708 265.549 49.7007 266.073 48.094C266.506 46.5808 266.751 44.9962 266.791 43.3564C266.751 41.2931 266.478 39.4388 265.976 37.7935C265.475 36.1483 264.741 34.7122 263.784 33.4962C261.734 31.0916 259.046 29.8866 255.732 29.8866C252.327 29.8866 249.645 31.0916 247.68 33.4962C245.624 35.9888 244.622 39.2737 244.668 43.3619C244.622 44.1213 244.668 44.8806 244.799 45.6399C244.93 46.3938 245.123 47.1531 245.385 47.9069C245.778 49.5136 246.479 50.9057 247.481 52.0832C247.914 52.716 248.415 53.2882 248.984 53.789C249.554 54.3007 250.208 54.7134 250.949 55.06C251.604 55.4782 252.327 55.7973 253.107 56.0064C253.898 56.2155 254.77 56.3036 255.726 56.2595C257.435 56.254 259.001 55.8744 260.441 55.1205Z" fill="#353535" stroke="#353535" stroke-width="0.3545" stroke-miterlimit="10"/>
<path d="M305.596 59.2921L299.839 34.757L293.883 59.2921H286.229C285.352 56.5519 284.504 53.8227 283.672 51.1045C282.847 48.3864 282.032 45.6572 281.252 42.917C280.375 40.2593 279.527 37.5632 278.696 34.823C277.87 32.0828 277.033 29.3206 276.207 26.5309H282.494L290.215 53.9768L296.303 26.5309H302.851L309.463 53.9162C309.73 52.9038 310.009 51.8363 310.317 50.7194C310.619 49.6024 310.949 48.4524 311.296 47.2694C311.604 46.1359 311.917 44.9749 312.247 43.8029C312.578 42.6199 312.936 41.4148 313.329 40.1933C313.99 37.8768 314.645 35.5328 315.294 33.1668C315.863 30.8888 316.473 28.6823 317.127 26.5254H322.89C321.188 32.0938 319.548 37.5302 317.976 42.8455C317.145 45.5416 316.325 48.2598 315.493 51C314.662 53.7347 313.83 56.4969 312.999 59.2811H305.596V59.2921Z" fill="#353535" stroke="#353535" stroke-width="0.3545" stroke-miterlimit="10"/>
<path d="M351.951 40.8261C351.906 37.4532 351.137 34.9221 349.628 33.2384C348.125 31.5491 345.864 30.6853 342.852 30.6412C342.066 30.6853 341.337 30.7678 340.659 30.8943C339.982 31.0209 339.384 31.2135 338.86 31.4666C337.635 32.0994 336.673 32.8587 335.978 33.7446C335.141 34.713 334.578 35.7915 334.27 36.969C334.054 37.6458 333.9 38.3005 333.814 38.9333C333.723 39.5661 333.683 40.1989 333.683 40.8316V59.3582H328.183V26.1513H333.683V31.9728C334.737 29.8214 336.502 28.1982 338.991 27.0977C341.388 26.0853 344.178 25.6616 347.367 25.8321C348.113 25.9532 348.831 26.1293 349.531 26.3329C350.226 26.5475 350.904 26.8006 351.564 27.0922C352.737 27.8075 353.791 28.6494 354.702 29.6233C355.095 30.1735 355.465 30.7348 355.818 31.296C356.165 31.8683 356.496 32.468 356.803 33.1008C357.236 34.4489 357.503 35.8575 357.583 37.3376V59.3417H351.957V40.8261H351.951Z" fill="#353535" stroke="#353535" stroke-width="0.3545" stroke-miterlimit="10"/>
</g>
<defs>
<filter id="filter0_d_1_369" x="0.822754" y="0.822754" width="368.938" height="72.3545" filterUnits="userSpaceOnUse" color-interpolation-filters="sRGB">
<feFlood flood-opacity="0" result="BackgroundImageFix"/>
<feColorMatrix in="SourceAlpha" type="matrix" values="0 0 0 0 0 0 0 0 0 0 0 0 0 0 0 0 0 0 127 0" result="hardAlpha"/>
<feOffset/>
<feGaussianBlur stdDeviation="6"/>
<feComposite in2="hardAlpha" operator="out"/>
<feColorMatrix type="matrix" values="0 0 0 0 1 0 0 0 0 1 0 0 0 0 1 0 0 0 1 0"/>
<feBlend mode="normal" in2="BackgroundImageFix" result="effect1_dropShadow_1_369"/>
<feBlend mode="normal" in="SourceGraphic" in2="effect1_dropShadow_1_369" result="shape"/>
</filter>
</defs>
</svg>
