<svg width="151" height="88" viewBox="0 0 151 88" fill="none" xmlns="http://www.w3.org/2000/svg">
<g filter="url(#filter0_d_1_355)">
<path d="M106.022 28.566C106.837 29.0566 107.717 29.2051 108.64 28.9936C110.163 28.6606 111.239 27.5174 111.867 25.5597C112.156 24.5155 112.207 23.5659 111.993 22.7288C111.765 21.7342 111.239 20.9916 110.428 20.4875C109.594 19.9924 108.742 19.8484 107.825 20.06C107.154 20.1995 106.534 20.5685 105.947 21.1716C105.361 21.7657 104.918 22.5398 104.601 23.4984C104.303 24.5515 104.257 25.4921 104.462 26.3293C104.699 27.3284 105.212 28.0665 106.022 28.566Z" fill="#353535"/>
<path d="M57.6357 51.7799C57.8826 50.8528 58.0177 49.9347 58.0177 49.0121C58.0549 47.0813 57.6497 44.8535 56.6995 42.8733C55.8472 41.1046 54.5617 39.8534 52.7032 38.8678C50.4955 37.7066 47.6077 37.8191 45.3348 38.6608C43.6627 39.2683 42.2561 40.1234 41.0777 41.2081C39.9226 42.2972 39.019 43.5889 38.3809 45.0651C37.7381 46.5413 37.4167 48.3145 37.3888 50.3668C37.3841 51.6089 37.5425 52.8376 37.8685 54.0617C38.1946 55.2724 38.7209 56.3705 39.4568 57.3336C40.202 58.3058 41.1289 59.1069 42.298 59.7144C43.4531 60.3265 44.8457 60.6326 46.4992 60.6551C47.6357 60.6641 48.7163 60.5111 49.727 60.1915C50.747 59.8675 51.6646 59.4399 52.5263 58.8818C53.3833 58.3283 54.1378 57.6757 54.8178 56.9286C55.4932 56.159 56.0614 55.3489 56.5412 54.4803C57.0163 53.6072 57.3702 52.7206 57.6357 51.7799ZM52.0884 50.4838C51.7997 51.6089 51.4317 52.5765 50.9566 53.3641C50.5002 54.1562 49.9785 54.8178 49.3683 55.3309C48.7582 55.8485 48.1434 56.105 47.5099 56.105C46.7787 56.1005 46.1499 55.9565 45.6329 55.7134C45.1159 55.4524 44.6874 55.1104 44.366 54.6963C44.0632 54.2733 43.835 53.7827 43.6953 53.2201C43.5509 52.6575 43.4857 52.05 43.4857 51.4109C43.5043 50.1507 43.6766 49.0301 43.9887 48.0175C44.2961 47.0138 44.7293 46.1092 45.2509 45.2811C45.7959 44.4575 46.4107 43.7779 47.1 43.2603C47.9291 42.6438 49.2705 42.3512 50.3092 42.7068C51.6366 43.1568 52.1443 44.435 52.3586 45.5061C52.4657 46.1047 52.5263 46.7528 52.5263 47.4549C52.5169 48.346 52.3725 49.3451 52.0884 50.4838Z" fill="#353535"/>
<path d="M79.9801 53.5441C80.3574 52.6305 80.5902 51.7124 80.7253 50.7538C80.8464 49.8042 80.8697 48.877 80.7533 47.9679C80.539 46.0597 79.859 43.8904 78.6573 42.0227C77.5674 40.3665 76.1375 39.2683 74.1626 38.4942C71.8152 37.5626 68.9647 37.9857 66.8175 39.0523C65.2432 39.8309 63.939 40.8255 62.9376 42.0227C61.9129 43.2243 61.1817 44.5925 60.7625 46.1317C60.306 47.6574 60.2035 49.4351 60.4597 51.4784C60.5994 52.707 60.9069 53.9087 61.3959 55.0833C61.8757 56.258 62.5557 57.2841 63.3987 58.1707C64.2464 59.0483 65.299 59.7324 66.5287 60.223C67.7443 60.7001 69.1882 60.8711 70.8184 60.7091C71.9502 60.5965 73.0029 60.3355 73.9623 59.908C74.9265 59.4894 75.7975 58.9628 76.58 58.3148C77.3625 57.6802 78.0238 56.9601 78.6107 56.132C79.1696 55.3039 79.6401 54.4488 79.9801 53.5441ZM75.0383 50.0427C74.8985 51.1948 74.6563 52.185 74.293 53.0221C73.953 53.8547 73.5059 54.5523 72.9656 55.1418C72.4253 55.7179 71.8431 56.0285 71.2143 56.105C70.497 56.1635 69.8496 56.105 69.3093 55.9114C68.769 55.7044 68.2893 55.4209 67.9353 55.0383C67.5627 54.6468 67.2693 54.1832 67.0643 53.6387C66.8454 53.1031 66.7103 52.5135 66.6218 51.8744C66.4868 50.6278 66.5054 49.4936 66.6824 48.463C66.8733 47.4459 67.1761 46.4962 67.586 45.6231C68.0145 44.7455 68.5455 44.0074 69.1649 43.4268C69.9008 42.7293 71.1957 42.3062 72.2809 42.5402C73.6456 42.8553 74.3163 44.0704 74.661 45.0966C74.8659 45.6861 75.001 46.3162 75.0895 47.0183C75.2013 47.8824 75.1827 48.8905 75.0383 50.0427Z" fill="#353535"/>
<path d="M38.6992 33.022C39.1277 32.0139 39.5283 31.1228 39.9009 30.3397C40.4785 28.9445 41.4799 27.0722 42.0155 25.1235C42.4999 23.1972 42.7468 23.0442 43.152 20.8749C43.1985 20.6499 43.2358 20.5059 43.2638 20.4114L46.2447 19.8578L52.7748 19.0342C54.1441 18.9937 54.2745 18.9667 55.5927 19.0792C56.9294 19.1782 58.2708 19.3268 59.6262 19.5248C60.1712 19.6193 60.7115 19.7588 61.2611 19.9298C61.806 20.0963 62.3416 20.2224 62.8819 20.3259C63.2033 20.3889 63.4735 20.3664 63.7203 20.3034C63.9718 20.2269 64.1442 20.0468 64.242 19.7408C64.4143 18.7507 64.6006 17.207 64.1302 16.5679C63.6737 15.9198 63.0403 15.3977 62.2671 15.0062C61.466 14.6101 60.623 14.3221 59.7333 14.1286C58.8344 13.9396 58.0426 13.791 57.3765 13.6695C56.3472 13.4805 55.3411 13.3635 54.3817 13.3365C50.9117 13.269 51.3262 13.251 48.0239 13.3905C45.029 13.521 42.0108 13.71 38.9321 13.9351L38.2614 13.7865C21.0932 7.85929 12.9841 18.5797 12.9841 18.5797C9.00182 25.2855 18.3917 25.2855 18.3917 25.2855C25.2525 25.3485 32.2576 23.1387 35.8021 21.8291C35.7928 21.8336 35.7882 21.8516 35.7695 21.8786C35.0942 23.1072 34.3443 24.5429 33.5432 26.2081C32.742 27.8778 31.9363 29.5701 31.1398 31.3253C30.3433 33.0715 29.5841 34.7952 28.8901 36.5054C28.1822 38.2067 27.5906 39.6964 27.1342 40.9475C26.3703 43.0538 26.1328 44.3409 25.6065 46.6542C25.0988 48.9765 24.8286 51.2718 24.8286 53.5401C24.8286 53.9812 24.8519 54.6338 24.9544 55.5114C25.0429 56.3845 25.2525 57.2396 25.5739 58.0992C25.8906 58.9498 26.3703 59.7059 26.9805 60.363C27.5906 61.0156 28.429 61.3396 29.4677 61.3396C29.8403 61.3396 30.2409 61.1686 30.6833 60.8175C31.1072 60.471 31.3308 59.8454 31.3308 58.9813C31.3308 58.8913 31.3121 58.7833 31.2888 58.6528C31.2702 58.5223 31.2609 58.4232 31.2609 58.3287C31.3494 55.1873 31.6941 52.1584 32.2809 49.2556C32.8631 46.3482 33.4128 44.4355 34.7495 41.6811C35.1128 40.898 35.518 40.0114 35.9745 39.0213C36.4356 38.0446 36.8874 37.05 37.3485 36.0419C37.8049 35.0383 38.2567 34.0346 38.6992 33.022ZM24.0135 18.3546C21.4052 18.4896 22.891 17.018 22.891 17.018C25.872 14.9297 33.436 15.8568 33.436 15.8568C28.5827 18.3636 24.0135 18.3546 24.0135 18.3546Z" fill="#353535"/>
<path d="M138.017 44.4036C136.438 42.0678 133.746 43.814 133.746 43.814C129.368 46.6224 122.078 46.1453 122.078 46.1453C129.144 41.9688 134.454 31.793 134.454 31.793C139.973 23.2149 136.815 17.6657 136.815 17.6657C131.599 9.8347 123.233 18.9034 123.233 18.9034C117.095 25.2852 113.047 42.9049 113.047 42.9049C112.153 46.2848 111.459 49.7683 110.951 52.8692C110.313 53.9088 109.638 54.5074 108.962 54.6469C108.543 54.7504 108.11 54.6334 107.663 54.3094C106.946 53.7963 106.461 52.9952 106.214 51.9061C106 51.0149 106.019 50.2139 106.275 49.4713C106.419 48.9222 106.857 47.608 107.607 45.5153C108.487 42.8869 109.149 40.8257 109.568 39.3225C110.001 37.8238 110.197 36.6131 110.127 35.6905C110.071 34.9794 110.006 34.4708 109.922 34.1738C109.549 32.5491 108.748 31.55 107.537 31.1899C106.321 30.8434 105.05 30.8074 103.727 31.0999L102.74 31.3879C102.791 32.9947 102.679 34.4528 102.4 35.785C102.125 37.1262 101.687 38.7149 101.114 40.5646C100.495 42.5134 100.029 44.2281 99.7448 45.6908C99.4513 47.1625 99.3489 48.8142 99.4607 50.6684C99.5119 51.5865 99.6563 52.5226 99.8799 53.4678C99.8985 53.5758 99.9357 53.6928 99.9777 53.8098C99.9544 53.8503 99.9218 53.8818 99.9031 53.9223C98.6456 56.3391 97.1039 57.7388 95.3479 58.1259C94.5095 58.3059 93.6851 58.2294 92.8654 57.8828C92.0643 57.4868 91.4168 57.0412 90.9185 56.5192C90.4154 55.9611 90.0428 55.1555 89.782 54.1248C89.1765 51.501 89.4373 47.9411 90.5691 43.4315C92.2878 41.7528 94.2161 39.2234 96.4192 35.821C98.6037 32.4366 100.285 29.3807 101.468 26.6758C102.926 23.2464 103.401 20.4471 102.879 18.2688C102.181 15.3074 99.782 14.3488 95.674 15.4064C93.3358 15.987 91.0209 18.6243 88.7573 23.3679C86.4797 28.1025 84.8309 33.4897 83.8202 39.5385C82.7955 45.5738 82.7722 50.6549 83.7317 54.7549C84.3977 57.5183 85.5342 59.5615 87.169 60.9027C88.7992 62.2259 90.9418 62.6039 93.5966 62.0144C95.6972 61.5553 97.3321 60.7902 98.5105 59.7326C99.3768 58.9405 100.15 57.7658 100.858 56.2041C101.636 57.6983 102.679 58.6119 104.007 58.9405C105.138 59.2195 106.252 59.2285 107.327 58.99L108.385 58.6839L108.455 58.6614C109.144 58.4094 109.754 58.0583 110.262 57.6488C109.829 61.0602 109.647 63.3555 109.647 63.3555C108.655 75.1515 116.27 75.9481 116.27 75.9481C126.019 76.8527 126.531 64.6427 126.531 64.6427C126.969 54.9035 123.238 50.5469 123.238 50.5469C129.913 52.9277 136.759 48.9492 136.759 48.9492C139.33 46.6854 138.017 44.4036 138.017 44.4036ZM93.5501 30.3708C94.6213 27.3329 95.7159 24.7946 96.8803 22.7423C98.0354 20.6946 99.0042 19.6099 99.782 19.4929C100.443 19.3939 100.443 20.42 99.782 22.5668C99.1067 24.7226 97.9749 27.3779 96.3819 30.5283C94.7797 33.6922 93.0657 36.6356 91.2352 39.372C91.7336 36.4151 92.4974 33.4177 93.5501 30.3708ZM130.462 21.1536C130.462 21.1536 132.391 20.6271 132.46 22.4588C132.46 22.4588 131.431 32.2656 119.247 41.5502C119.251 41.5502 124.412 22.3913 130.462 21.1536ZM119.899 70.1019C119.899 70.1019 118.571 71.4656 117.472 70.0344C117.472 70.0344 113.238 63.117 117.891 48.3461C117.891 48.3416 124.342 66.1819 119.899 70.1019Z" fill="#353535"/>
<path d="M106.023 28.5659C106.838 29.0565 107.718 29.205 108.64 28.9935C110.163 28.6604 111.239 27.5173 111.868 25.5641C112.157 24.5154 112.208 23.5703 111.999 22.7332C111.77 21.7386 111.244 20.996 110.434 20.4919C109.6 19.9968 108.752 19.8528 107.83 20.0644C107.159 20.2039 106.544 20.5729 105.953 21.176C105.366 21.7701 104.924 22.5442 104.607 23.5028C104.309 24.5559 104.262 25.4965 104.472 26.3291C104.7 27.3283 105.212 28.0664 106.023 28.5659Z" fill="#353535"/>
<path d="M57.6408 51.7799C57.8877 50.8528 58.0228 49.9347 58.0228 49.0121C58.06 47.0813 57.6548 44.8535 56.7093 42.8733C55.8616 41.1001 54.5714 39.8534 52.713 38.8678C50.5053 37.7066 47.6175 37.8191 45.3445 38.6608C43.6724 39.2683 42.2658 40.1189 41.0874 41.2081C39.9323 42.2972 39.0287 43.5889 38.3906 45.0651C37.7479 46.5458 37.4311 48.319 37.3985 50.3668C37.3939 51.6089 37.5522 52.8421 37.8783 54.0662C38.2043 55.2769 38.7306 56.375 39.4666 57.3381C40.2118 58.3058 41.1433 59.1114 42.3077 59.7189C43.4628 60.331 44.8555 60.6371 46.509 60.6596C47.6454 60.6686 48.726 60.5155 49.7367 60.196C50.7568 59.872 51.6743 59.4444 52.536 58.8863C53.393 58.3328 54.1476 57.6802 54.8276 56.9331C55.503 56.1635 56.0712 55.3534 56.5509 54.4848C57.0167 53.6072 57.3707 52.7206 57.6408 51.7799ZM52.0935 50.4838C51.8048 51.6044 51.4321 52.572 50.9617 53.3596C50.5053 54.1562 49.9836 54.8133 49.3734 55.3264C48.7586 55.8484 48.1438 56.105 47.5104 56.105C46.7791 56.1005 46.1503 55.952 45.6333 55.7134C45.1163 55.4524 44.6878 55.1104 44.3711 54.6918C44.0683 54.2733 43.8355 53.7827 43.7004 53.2201C43.556 52.6575 43.4955 52.05 43.4955 51.4109C43.5141 50.1507 43.6818 49.0301 43.9938 48.0175C44.3012 47.0138 44.7344 46.1047 45.2561 45.2811C45.801 44.4575 46.4205 43.7779 47.1052 43.2603C47.9342 42.6438 49.2803 42.3512 50.3143 42.7113C51.6371 43.1613 52.1494 44.4395 52.3683 45.5061C52.4755 46.1092 52.536 46.7573 52.536 47.4594C52.5174 48.346 52.373 49.3451 52.0935 50.4838Z" fill="#353535"/>
<path d="M79.9818 53.5443C80.3591 52.6307 80.592 51.7126 80.727 50.754C80.8481 49.8044 80.8714 48.8773 80.755 47.9636C80.5407 46.0599 79.8607 43.8861 78.659 42.0184C77.5691 40.3577 76.1392 39.264 74.1644 38.4854C71.8169 37.5538 68.9664 37.9814 66.8192 39.048C65.2449 39.8266 63.9454 40.8212 62.9393 42.0184C61.9146 43.22 61.188 44.5882 60.7595 46.1274C60.3031 47.6531 60.2006 49.4353 60.4568 51.4786C60.5965 52.7072 60.9039 53.9089 61.393 55.079C61.8727 56.2537 62.5527 57.2843 63.3958 58.1664C64.2435 59.0441 65.2961 59.7281 66.5304 60.2142C67.7461 60.6913 69.1899 60.8623 70.8155 60.7003C71.9473 60.5877 72.9999 60.3222 73.9594 59.8992C74.9236 59.4806 75.7945 58.954 76.577 58.3105C77.3595 57.6759 78.0209 56.9558 78.6031 56.1277C79.1714 55.3041 79.6418 54.449 79.9818 53.5443ZM75.04 50.0429C74.9003 51.195 74.6581 52.1852 74.2948 53.0223C73.9548 53.8549 73.5076 54.5525 72.9673 55.1421C72.427 55.7181 71.8448 56.0332 71.216 56.1052C70.4988 56.1637 69.8513 56.1052 69.311 55.9116C68.7708 55.7091 68.291 55.4211 67.937 55.043C67.5644 54.6515 67.271 54.1879 67.066 53.6434C66.8471 53.1033 66.7121 52.5182 66.6236 51.8791C66.4838 50.6325 66.5071 49.4983 66.6841 48.4677C66.8751 47.4506 67.1778 46.5009 67.5877 45.6278C68.0162 44.7502 68.5472 44.0121 69.1667 43.4316C69.9026 42.734 71.1974 42.3109 72.2826 42.5449C73.6474 42.86 74.3181 44.0751 74.6627 45.1013C74.8677 45.6908 75.0027 46.3209 75.0912 47.023C75.203 47.8826 75.1844 48.8908 75.04 50.0429Z" fill="#353535"/>
<path d="M38.6992 33.022C39.1277 32.0139 39.5283 31.1228 39.9009 30.3352C40.4785 28.94 41.4799 27.0677 42.0155 25.119C42.4999 23.1927 42.7467 23.0397 43.152 20.8704C43.1985 20.6454 43.2358 20.5014 43.2638 20.4069L46.2447 19.8533L52.7747 19.0252C54.1441 18.9892 54.2745 18.9622 55.5926 19.0747C56.9294 19.1782 58.2755 19.3222 59.6262 19.5203C60.1712 19.6148 60.7114 19.7543 61.2611 19.9253C61.806 20.0918 62.3416 20.2179 62.8819 20.3214C63.2033 20.3799 63.4735 20.3619 63.7203 20.2989C63.9718 20.2224 64.1442 20.0423 64.2373 19.7363C64.4096 18.7462 64.596 17.2025 64.1255 16.5634C63.6691 15.9153 63.0356 15.3932 62.2625 15.0017C61.4613 14.6056 60.6183 14.3176 59.7287 14.1241C58.8297 13.9351 58.0379 13.7865 57.3719 13.665C56.3425 13.476 55.3411 13.359 54.377 13.3275C50.907 13.26 51.3216 13.242 48.0193 13.3815C45.029 13.521 42.0108 13.71 38.9321 13.9351L38.2567 13.7865C21.0932 7.85929 12.9841 18.5797 12.9841 18.5797C9.00182 25.2855 18.3917 25.2855 18.3917 25.2855C25.2525 25.344 32.2576 23.1387 35.8021 21.8291C35.7928 21.8336 35.7882 21.8516 35.7695 21.8786C35.0942 23.1072 34.3443 24.5429 33.5478 26.2081C32.7467 27.8778 31.9363 29.5701 31.1445 31.3253C30.348 33.0715 29.5888 34.7952 28.8948 36.5054C28.1868 38.2067 27.6 39.6964 27.1388 40.9475C26.3703 43.0538 26.1328 44.3409 25.6065 46.6542C25.0941 48.9765 24.824 51.2718 24.824 53.5401C24.824 53.9812 24.8473 54.6338 24.9544 55.5114C25.0429 56.3845 25.2525 57.2441 25.5739 58.0992C25.8906 58.9498 26.3703 59.7059 26.9805 60.363C27.5906 61.0156 28.429 61.3396 29.4677 61.3396C29.8403 61.3396 30.2409 61.1686 30.6833 60.8175C31.1072 60.471 31.3308 59.8454 31.3308 58.9813C31.3308 58.8868 31.3121 58.7833 31.2888 58.6483C31.2702 58.5223 31.2656 58.4187 31.2656 58.3242C31.3494 55.1783 31.6941 52.1539 32.2856 49.2466C32.8725 46.3392 33.4174 44.4265 34.7495 41.6766C35.1128 40.8935 35.518 40.0069 35.9745 39.0168C36.4356 38.0401 36.892 37.0455 37.3485 36.0374C37.8049 35.0383 38.2567 34.0346 38.6992 33.022ZM24.0182 18.3546C21.4099 18.4896 22.8957 17.018 22.8957 17.018C25.8766 14.9252 33.436 15.8523 33.436 15.8523C28.5827 18.3636 24.0182 18.3546 24.0182 18.3546Z" fill="#353535"/>
<path d="M138.022 44.4035C136.443 42.0677 133.746 43.814 133.746 43.814C129.368 46.6223 122.078 46.1453 122.078 46.1453C129.144 41.9687 134.454 31.7974 134.454 31.7974C139.973 23.2193 136.815 17.6701 136.815 17.6701C131.599 9.83462 123.234 18.9078 123.234 18.9078C117.095 25.2896 113.052 42.9093 113.052 42.9093C112.153 46.2893 111.464 49.7727 110.956 52.8736C110.318 53.9132 109.647 54.5118 108.967 54.6468C108.548 54.7549 108.115 54.6333 107.668 54.3093C106.95 53.7962 106.47 52.9951 106.219 51.906C106.005 51.0149 106.023 50.2138 106.28 49.4712C106.424 48.9221 106.862 47.6079 107.612 45.5152C108.492 42.8868 109.153 40.8256 109.573 39.3224C110.006 37.8237 110.201 36.6175 110.131 35.6904C110.076 34.9793 110.01 34.4708 109.926 34.1737C109.554 32.549 108.753 31.5499 107.542 31.1898C106.326 30.8433 105.055 30.8073 103.732 31.0953L102.744 31.3879C102.796 32.9946 102.684 34.4528 102.404 35.7849C102.13 37.1261 101.692 38.7148 101.119 40.56C100.499 42.5133 100.034 44.2235 99.7494 45.6907C99.456 47.1624 99.3535 48.8096 99.4653 50.6683C99.5166 51.5864 99.6609 52.5226 99.8845 53.4677C99.9031 53.5757 99.9404 53.6927 99.9777 53.8097C99.9544 53.8457 99.9218 53.8817 99.9031 53.9222C98.6502 56.3391 97.1085 57.7387 95.3479 58.1258C94.5095 58.3013 93.6851 58.2248 92.8654 57.8828C92.0643 57.4867 91.4168 57.0411 90.9185 56.5236C90.4154 55.9655 90.0428 55.1599 89.782 54.1293C89.1765 51.5054 89.4373 47.9455 90.5691 43.4359C92.2878 41.7572 94.2161 39.2279 96.4192 35.8254C98.6037 32.441 100.285 29.3851 101.468 26.6803C102.926 23.2508 103.401 20.4515 102.879 18.2732C102.181 15.3118 99.782 14.3532 95.674 15.4108C93.3358 15.9914 91.0209 18.6287 88.7573 23.3723C86.4797 28.1025 84.8309 33.4941 83.8202 39.5429C82.7955 45.5782 82.7722 50.6593 83.7317 54.7594C84.3977 57.5227 85.5342 59.566 87.1644 60.9071C88.7946 62.2303 90.9371 62.6084 93.592 62.0188C95.6973 61.5597 97.3274 60.7946 98.5058 59.737C99.3722 58.9449 100.145 57.7702 100.853 56.2085C101.631 57.7027 102.674 58.6163 103.997 58.9449C105.129 59.2239 106.242 59.2329 107.318 58.9944L108.371 58.6884L108.441 58.6659C109.13 58.4138 109.74 58.0673 110.248 57.6532C109.815 61.0647 109.638 63.36 109.638 63.36C108.646 75.156 116.256 75.9526 116.256 75.9526C126.005 76.8527 126.517 64.6471 126.517 64.6471C126.95 54.9079 123.224 50.5513 123.224 50.5513C129.899 52.9276 136.745 48.9491 136.745 48.9491C139.33 46.6853 138.022 44.4035 138.022 44.4035ZM93.5501 30.3707C94.6213 27.3329 95.7159 24.7945 96.8803 22.7378C98.0354 20.69 99.0042 19.6054 99.7821 19.4929C100.443 19.3938 100.443 20.42 99.7821 22.5667C99.1067 24.7225 97.9749 27.3779 96.3819 30.5328C94.7844 33.6967 93.0657 36.64 91.2352 39.3764C91.7336 36.415 92.4974 33.4176 93.5501 30.3707ZM130.462 21.1536C130.462 21.1536 132.391 20.6315 132.46 22.4587C132.46 22.4587 131.431 32.2655 119.247 41.5502C119.251 41.5502 124.412 22.3912 130.462 21.1536ZM119.899 70.1018C119.899 70.1018 118.571 71.4655 117.472 70.0343C117.472 70.0343 113.238 63.1169 117.891 48.346C117.891 48.3415 124.342 66.1773 119.899 70.1018Z" fill="#353535"/>
</g>
<defs>
<filter id="filter0_d_1_355" x="0" y="0" width="150.353" height="88" filterUnits="userSpaceOnUse" color-interpolation-filters="sRGB">
<feFlood flood-opacity="0" result="BackgroundImageFix"/>
<feColorMatrix in="SourceAlpha" type="matrix" values="0 0 0 0 0 0 0 0 0 0 0 0 0 0 0 0 0 0 127 0" result="hardAlpha"/>
<feOffset/>
<feGaussianBlur stdDeviation="6"/>
<feComposite in2="hardAlpha" operator="out"/>
<feColorMatrix type="matrix" values="0 0 0 0 1 0 0 0 0 1 0 0 0 0 1 0 0 0 1 0"/>
<feBlend mode="normal" in2="BackgroundImageFix" result="effect1_dropShadow_1_355"/>
<feBlend mode="normal" in="SourceGraphic" in2="effect1_dropShadow_1_355" result="shape"/>
</filter>
</defs>
</svg>
