<svg width="132" height="22" viewBox="0 0 132 22" fill="none" xmlns="http://www.w3.org/2000/svg">
<path d="M11.5508 6.86328C11.3867 5.29102 10.1426 4.375 8.13281 4.375C6.05469 4.375 4.89258 5.33203 4.87891 6.64453C4.86523 8.08008 6.3418 8.72266 8.05078 9.10547L9.82812 9.54297C13.2188 10.3223 15.748 12.0449 15.7617 15.3398C15.748 18.9629 12.9316 21.2871 8.10547 21.2734C3.32031 21.2871 0.271484 19.0723 0.148438 14.8203H4.14062C4.27734 16.8164 5.86328 17.8281 8.05078 17.8281C10.2109 17.8281 11.6055 16.8164 11.6055 15.3398C11.6055 13.9863 10.375 13.3574 8.21484 12.8242L6.05469 12.3047C2.71875 11.4844 0.667969 9.81641 0.667969 6.91797C0.654297 3.32227 3.82617 0.929688 8.16016 0.929688C12.5488 0.929688 15.4336 3.36328 15.4883 6.86328H11.5508ZM22.4062 12.4141V21H18.3594V1.20312H22.2969V8.75H22.4609C23.1445 7.01367 24.6348 5.96094 26.8906 5.96094C29.9941 5.96094 32.0312 8.05273 32.0312 11.5391V21H27.9844V12.25C27.9844 10.4043 27 9.32422 25.3047 9.32422C23.5957 9.32422 22.4062 10.459 22.4062 12.4141ZM41.875 21.3008C37.3223 21.2871 34.5332 18.3477 34.5469 13.6445C34.5332 9.06445 37.3633 5.96094 41.7109 5.96094C45.6074 5.96094 48.6836 8.42188 48.6836 13.4805V14.6289H38.5391C38.5391 16.8711 39.8652 18.252 41.957 18.2656C43.3379 18.252 44.3223 17.6504 44.7188 16.7617H48.5742C48 19.5098 45.5391 21.2871 41.875 21.3008ZM38.5391 12.0859H44.8555C44.8418 10.2812 43.5977 8.98242 41.793 8.99609C39.9336 8.98242 38.6211 10.377 38.5391 12.0859ZM55.957 1.20312L53.6055 8.99609H50.707L52.0742 1.20312H55.957ZM65.2266 10.5547C65.0488 9.51562 64.1465 8.8457 62.793 8.83203C61.4805 8.8457 60.4824 9.46094 60.4961 10.3633C60.4824 11.0332 61.002 11.5527 62.4102 11.8398L65.0625 12.3867C67.9473 12.9883 69.3418 14.2734 69.3555 16.4062C69.3418 19.332 66.7168 21.2871 62.7656 21.3008C58.7598 21.2871 56.4082 19.4961 56.0664 16.5977H60.1406C60.332 17.7598 61.2754 18.3613 62.7656 18.375C64.2422 18.3613 65.2266 17.7734 65.2266 16.8164C65.2266 16.0508 64.5977 15.5723 63.2031 15.2852L60.7422 14.793C57.9121 14.2324 56.4629 12.7832 56.4766 10.582C56.4629 7.73828 58.9102 5.96094 62.7383 5.96094C66.4844 5.96094 68.8086 7.73828 69.0273 10.5547H65.2266ZM78.3789 21V1.20312H82.4805V17.6094H91.0117V21H78.3789ZM93.582 21V6.15234H97.6289V21H93.582ZM93.3906 2.16016C93.3906 1.01172 94.3887 0.0957031 95.6055 0.0820312C96.8086 0.0957031 97.8066 1.01172 97.793 2.16016C97.8066 3.28125 96.8086 4.21094 95.6055 4.21094C94.3887 4.21094 93.3906 3.28125 93.3906 2.16016ZM104.82 12.4141V21H100.773V6.15234H104.629V8.75H104.793C105.463 7.04102 107.049 5.96094 109.25 5.96094C112.354 5.96094 114.377 8.08008 114.363 11.5391V21H110.344V12.25C110.33 10.418 109.346 9.32422 107.664 9.32422C105.982 9.32422 104.82 10.459 104.82 12.4141ZM124.234 21.3008C119.682 21.2871 116.893 18.3477 116.906 13.6445C116.893 9.06445 119.723 5.96094 124.07 5.96094C127.967 5.96094 131.043 8.42188 131.043 13.4805V14.6289H120.898C120.898 16.8711 122.225 18.252 124.316 18.2656C125.697 18.252 126.682 17.6504 127.078 16.7617H130.934C130.359 19.5098 127.898 21.2871 124.234 21.3008ZM120.898 12.0859H127.215C127.201 10.2812 125.957 8.98242 124.152 8.99609C122.293 8.98242 120.98 10.377 120.898 12.0859Z" fill="#353535"/>
</svg>
