<svg width="910" height="163" viewBox="0 0 910 163" fill="none" xmlns="http://www.w3.org/2000/svg">
<path d="M140.926 135.001L135.8 149.68C119.257 155.971 94.792 161.33 78.715 161.33C37.94 161.33 0.66 135.001 10.679 83.042C19.3 39.005 57.745 0.559998 107.84 0.559998C130.674 0.559998 147.45 5.68599 163.061 19.2L154.44 34.112C144.188 11.744 128.81 7.78299 110.17 7.78299C66.366 7.78299 37.474 47.393 30.717 83.042C21.863 127.545 45.862 155.039 85.472 155.039C102.015 155.039 125.781 146.185 140.926 135.001ZM260.078 105.876C253.554 139.195 226.759 161.563 193.906 161.563C178.295 161.563 164.781 155.505 156.626 144.088C148.471 132.438 148.471 120.555 151.5 105.41C157.791 72.091 185.984 50.888 218.371 50.888C250.059 50.888 265.903 75.353 260.078 105.876ZM242.836 104.944C247.263 83.042 243.302 55.781 217.206 55.781C187.149 55.781 173.169 83.508 168.276 108.672C163.849 132.205 169.441 156.67 196.702 156.67C223.963 156.67 238.642 127.312 242.836 104.944ZM350.453 159L334.842 158.767C334.842 158.767 342.764 118.225 347.424 93.993C350.453 78.848 350.453 60.208 327.153 60.208C306.882 60.208 290.572 79.78 285.446 106.109L275.194 159L259.117 158.767C259.117 158.767 274.961 77.683 279.388 55.548H290.572L290.106 79.081C300.591 63.004 315.503 52.519 334.842 52.519C358.375 52.519 368.627 64.868 363.268 92.362L350.453 159ZM415.101 155.039L414.635 157.835C408.344 159.699 402.053 160.864 395.762 160.864C379.685 160.864 372.229 150.845 375.491 134.768L389.704 61.606H374.093L375.258 55.781H390.869L395.762 30.384L412.771 24.559L406.713 55.781H430.479L429.314 61.606H405.548C405.548 61.606 396.694 107.041 392.966 126.613C390.17 140.593 388.306 156.437 405.781 156.437C409.043 156.437 412.072 155.738 415.101 155.039ZM513.999 159H503.048L504.446 138.263C492.33 153.641 480.913 161.563 460.409 161.563C435.944 161.563 423.129 145.952 423.129 122.186C423.129 88.634 447.128 52.286 483.476 52.286C499.32 52.286 510.038 57.878 516.096 72.557C517.727 66.499 518.892 60.208 520.29 54.15H534.503L513.999 159ZM465.535 155.738C495.825 155.738 511.669 118.924 511.669 93.294C511.669 76.984 505.611 58.81 486.505 58.81C457.613 58.81 445.497 86.77 440.837 111.002C440.138 115.429 439.905 119.856 439.905 124.283C439.905 141.059 446.895 155.738 465.535 155.738ZM619.102 142.457L616.772 150.845C605.355 157.835 592.773 161.796 580.657 161.796C545.707 161.796 526.834 142.69 533.824 106.808C540.581 72.091 568.541 52.985 601.86 52.985C614.209 52.985 625.393 55.548 634.946 61.606L627.723 74.654C622.364 64.635 614.209 58.344 601.161 58.344C573.667 58.344 555.726 80.479 550.833 105.643C545.707 131.972 556.192 155.971 584.851 155.971C597.899 155.971 608.151 150.845 619.102 142.457ZM675.852 155.039L675.386 157.835C669.095 159.699 662.804 160.864 656.513 160.864C640.436 160.864 632.98 150.845 636.242 134.768L650.455 61.606H634.844L636.009 55.781H651.62L656.513 30.384L673.522 24.559L667.464 55.781H691.23L690.065 61.606H666.299C666.299 61.606 657.445 107.041 653.717 126.613C650.921 140.593 649.057 156.437 666.532 156.437C669.794 156.437 672.823 155.738 675.852 155.039ZM815.292 159H804.108L804.574 135.467C794.089 151.544 779.177 162.029 759.838 162.029C736.305 162.029 726.053 149.68 731.412 122.186L744.227 55.781H759.838C759.838 55.781 751.916 96.323 747.256 120.555C744.227 135.7 743.994 154.34 767.527 154.34C787.798 154.34 804.108 134.768 809.234 108.439L819.486 55.548L835.563 55.781C835.563 55.781 819.719 136.865 815.292 159ZM828.16 154.107L834.917 141.525C839.344 149.214 846.567 156.437 859.615 156.437C871.731 156.437 885.478 147.816 888.041 135.001C893.633 105.876 836.315 117.293 843.305 81.877C847.499 60.441 865.906 51.354 885.711 51.354C894.099 51.354 904.351 54.383 909.011 57.645L901.788 69.761C898.06 61.373 892.934 56.014 881.75 56.014C870.566 56.014 859.848 63.004 857.285 76.052C851.227 107.74 909.011 91.896 901.788 129.176C897.361 152.01 876.158 161.563 855.188 161.563C845.868 161.563 835.15 159 828.16 154.107Z" fill="#353535"/>
</svg>
